<svg width="23" height="23" viewBox="0 0 23 23" fill="none"
    xmlns="http://www.w3.org/2000/svg">
    <path d="M1.91675 3.45C1.91675 2.91329 1.91675 2.64493 2.0212 2.43993C2.11308 2.25961 2.25969 2.113 2.44001 2.02112C2.64501 1.91667 2.91336 1.91667 3.45008 1.91667H8.05008C8.5868 1.91667 8.85516 1.91667 9.06016 2.02112C9.24048 2.113 9.38708 2.25961 9.47896 2.43993C9.58341 2.64493 9.58341 2.91329 9.58341 3.45001V8.05001C9.58341 8.58672 9.58341 8.85508 9.47896 9.06008C9.38708 9.2404 9.24048 9.38701 9.06016 9.47889C8.85516 9.58334 8.5868 9.58334 8.05008 9.58334H3.45008C2.91336 9.58334 2.64501 9.58334 2.44001 9.47889C2.25969 9.38701 2.11308 9.2404 2.0212 9.06008C1.91675 8.85508 1.91675 8.58672 1.91675 8.05001V3.45Z" stroke="#ffffff" stroke-width="1.7"/>
    <path d="M1.91675 14.95C1.91675 14.4133 1.91675 14.1449 2.0212 13.9399C2.11308 13.7596 2.25969 13.613 2.44001 13.5211C2.64501 13.4167 2.91336 13.4167 3.45008 13.4167H8.05008C8.5868 13.4167 8.85516 13.4167 9.06016 13.5211C9.24048 13.613 9.38708 13.7596 9.47896 13.9399C9.58341 14.1449 9.58341 14.4133 9.58341 14.95V19.55C9.58341 20.0867 9.58341 20.3551 9.47896 20.5601C9.38708 20.7404 9.24048 20.887 9.06016 20.9789C8.85516 21.0833 8.5868 21.0833 8.05008 21.0833H3.45008C2.91336 21.0833 2.64501 21.0833 2.44001 20.9789C2.25969 20.887 2.11308 20.7404 2.0212 20.5601C1.91675 20.3551 1.91675 20.0867 1.91675 19.55V14.95Z" stroke="#ffffff" stroke-width="1.7"/>
    <path d="M13.4167 3.45C13.4167 2.91329 13.4167 2.64493 13.5212 2.43993C13.6131 2.25961 13.7597 2.113 13.94 2.02112C14.145 1.91667 14.4134 1.91667 14.9501 1.91667H19.5501C20.0868 1.91667 20.3552 1.91667 20.5602 2.02112C20.7405 2.113 20.8871 2.25961 20.979 2.43993C21.0834 2.64493 21.0834 2.91329 21.0834 3.45001V8.05001C21.0834 8.58672 21.0834 8.85508 20.979 9.06008C20.8871 9.2404 20.7405 9.38701 20.5602 9.47889C20.3552 9.58334 20.0868 9.58334 19.5501 9.58334H14.9501C14.4134 9.58334 14.145 9.58334 13.94 9.47889C13.7597 9.38701 13.6131 9.2404 13.5212 9.06008C13.4167 8.85508 13.4167 8.58672 13.4167 8.05001V3.45Z" stroke="#ffffff" stroke-width="1.7"/>
    <path d="M13.4167 14.95C13.4167 14.4133 13.4167 14.1449 13.5212 13.9399C13.6131 13.7596 13.7597 13.613 13.94 13.5211C14.145 13.4167 14.4134 13.4167 14.9501 13.4167H19.5501C20.0868 13.4167 20.3552 13.4167 20.5602 13.5211C20.7405 13.613 20.8871 13.7596 20.979 13.9399C21.0834 14.1449 21.0834 14.4133 21.0834 14.95V19.55C21.0834 20.0867 21.0834 20.3551 20.979 20.5601C20.8871 20.7404 20.7405 20.887 20.5602 20.9789C20.3552 21.0833 20.0868 21.0833 19.5501 21.0833H14.9501C14.4134 21.0833 14.145 21.0833 13.94 20.9789C13.7597 20.887 13.6131 20.7404 13.5212 20.5601C13.4167 20.3551 13.4167 20.0867 13.4167 19.55V14.95Z" stroke="#ffffff" stroke-width="1.7"/>
</svg>
