<svg width="28" height="28" viewBox="0 0 28 28" fill="none" xmlns="http://www.w3.org/2000/svg">
<path fill-rule="evenodd" clip-rule="evenodd" d="M13.9998 4.66667C11.5836 4.66667 9.62484 6.62542 9.62484 9.04167C9.62484 11.4579 11.5836 13.4167 13.9998 13.4167C16.4161 13.4167 18.3748 11.4579 18.3748 9.04167C18.3748 6.62542 16.4161 4.66667 13.9998 4.66667ZM11.3748 9.04167C11.3748 7.59192 12.5501 6.41667 13.9998 6.41667C15.4496 6.41667 16.6248 7.59192 16.6248 9.04167C16.6248 10.4914 15.4496 11.6667 13.9998 11.6667C12.5501 11.6667 11.3748 10.4914 11.3748 9.04167Z" fill="#0088CC"/>
<path fill-rule="evenodd" clip-rule="evenodd" d="M10.4998 15.1667C8.08359 15.1667 6.12484 17.1254 6.12484 19.5417C6.12484 21.9579 8.08359 23.9167 10.4998 23.9167H17.4998C19.9161 23.9167 21.8748 21.9579 21.8748 19.5417C21.8748 17.1254 19.9161 15.1667 17.4998 15.1667H10.4998ZM7.87484 19.5417C7.87484 18.0919 9.05009 16.9167 10.4998 16.9167H17.4998C18.9496 16.9167 20.1248 18.0919 20.1248 19.5417C20.1248 20.9914 18.9496 22.1667 17.4998 22.1667H10.4998C9.05009 22.1667 7.87484 20.9914 7.87484 19.5417Z" fill="#0088CC"/>
<path d="M9.044 12.1201C8.85999 11.8245 8.51471 11.6667 8.1665 11.6667C6.71676 11.6667 5.5415 10.4914 5.5415 9.04167C5.5415 7.59192 6.71676 6.41667 8.1665 6.41667C8.51471 6.41667 8.85999 6.25885 9.044 5.96324C9.05214 5.95016 9.06033 5.93713 9.06857 5.92412C9.37494 5.44053 9.21971 4.7558 8.65067 4.69316C8.49169 4.67565 8.33015 4.66667 8.1665 4.66667C5.75026 4.66667 3.7915 6.62542 3.7915 9.04167C3.7915 11.4579 5.75026 13.4167 8.1665 13.4167C8.33015 13.4167 8.49169 13.4077 8.65067 13.3902C9.21971 13.3275 9.37494 12.6428 9.06857 12.1592C9.06033 12.1462 9.05214 12.1332 9.044 12.1201Z" fill="#0088CC"/>
<path d="M5.49284 21.3697C5.3604 21.1487 5.12663 21 4.86902 21H4.6665C3.21676 21 2.0415 19.8247 2.0415 18.375C2.0415 16.9253 3.21676 15.75 4.6665 15.75H4.86902C5.12663 15.75 5.3604 15.6013 5.49284 15.3803C5.81613 14.841 5.4653 14 4.83648 14H4.6665C2.25026 14 0.291504 15.9588 0.291504 18.375C0.291504 20.7912 2.25026 22.75 4.6665 22.75H4.83648C5.4653 22.75 5.81613 21.909 5.49284 21.3697Z" fill="#0088CC"/>
<path d="M18.9311 12.1592C18.6247 12.6428 18.78 13.3275 19.349 13.3902C19.508 13.4077 19.6695 13.4167 19.8332 13.4167C22.2494 13.4167 24.2082 11.4579 24.2082 9.04167C24.2082 6.62542 22.2494 4.66667 19.8332 4.66667C19.6695 4.66667 19.508 4.67565 19.349 4.69316C18.78 4.7558 18.6247 5.44053 18.9311 5.92412C18.9393 5.93712 18.9475 5.95016 18.9557 5.96324C19.1397 6.25885 19.485 6.41667 19.8332 6.41667C21.2829 6.41667 22.4582 7.59192 22.4582 9.04167C22.4582 10.4914 21.2829 11.6667 19.8332 11.6667C19.485 11.6667 19.1397 11.8245 18.9557 12.1201C18.9475 12.1332 18.9393 12.1462 18.9311 12.1592Z" fill="#0088CC"/>
<path d="M22.5068 21.3697C22.1835 21.909 22.5344 22.75 23.1632 22.75H23.3332C25.7494 22.75 27.7082 20.7912 27.7082 18.375C27.7082 15.9588 25.7494 14 23.3332 14H23.1632C22.5344 14 22.1835 14.841 22.5068 15.3803C22.6393 15.6013 22.873 15.75 23.1307 15.75H23.3332C24.7829 15.75 25.9582 16.9253 25.9582 18.375C25.9582 19.8247 24.7829 21 23.3332 21H23.1307C22.873 21 22.6393 21.1487 22.5068 21.3697Z" fill="#0088CC"/>
</svg>
