<svg width="23" height="23" viewBox="0 0 23 23" fill="none"
    xmlns="http://www.w3.org/2000/svg">
    <g clip-path="url(#clip0_1_4494)">
        <path d="M7.66659 7.66668H15.3333M7.66659 7.66668V15.3333M7.66659 7.66668H2.87492C1.81637 7.66668 0.958252 6.80856 0.958252 5.75001C0.958252 3.10365 3.10355 0.958344 5.74992 0.958344C6.80846 0.958344 7.66659 1.81646 7.66659 2.87501V7.66668ZM15.3333 7.66668V15.3333M15.3333 7.66668H20.1249C21.1835 7.66668 22.0416 6.80856 22.0416 5.75001C22.0416 3.10365 19.8963 0.958344 17.2499 0.958344C16.1914 0.958344 15.3333 1.81646 15.3333 2.87501V7.66668ZM15.3333 15.3333H7.66659M15.3333 15.3333H20.1249C21.1835 15.3333 22.0416 16.1915 22.0416 17.25C22.0416 19.8964 19.8963 22.0417 17.2499 22.0417C16.1914 22.0417 15.3333 21.1836 15.3333 20.125V15.3333ZM7.66659 15.3333H2.87492C1.81637 15.3333 0.958252 16.1915 0.958252 17.25C0.958252 19.8964 3.10355 22.0417 5.74992 22.0417C6.80846 22.0417 7.66659 21.1836 7.66659 20.125V15.3333Z" stroke="#ffffff" stroke-width="1.7"/>
    </g>
    <defs>
        <clipPath id="clip0_1_4494">
            <rect width="23" height="23" fill="white"/>
        </clipPath>
    </defs>
</svg>
