<svg width="24" height="24" viewBox="0 0 24 24" fill="none"
    xmlns="http://www.w3.org/2000/svg">
    <path d="M7.2 2V2.85V2ZM20 5.2H19.15H20ZM20 18.8H20.85H20ZM19.782 20.908L20.5394 21.2939V21.2939L19.782 20.908ZM16.8 22V21.15V22ZM18.908 21.782L19.2939 22.5394H19.2939L18.908 21.782ZM18.908 2.21799L19.2939 1.46063V1.46063L18.908 2.21799ZM19.782 3.09202L19.0247 3.47791V3.47791L19.782 3.09202ZM5.09202 2.21799L5.47791 2.97534L5.09202 2.21799ZM4 5.2H3.15H4ZM4.21799 3.09202L4.97534 3.47791H4.97534L4.21799 3.09202ZM3.15 16C3.15 16.4694 3.53056 16.85 4 16.85C4.46944 16.85 4.85 16.4694 4.85 16H3.15ZM10 21.15C9.53056 21.15 9.15 21.5306 9.15 22C9.15 22.4694 9.53056 22.85 10 22.85V21.15ZM4.17071 16.1707L4.77175 15.5697L4.17071 16.1707ZM9.82929 21.8293L9.22825 22.4303L9.82929 21.8293ZM4.24142 16L4.24142 16.85H4.24142V16ZM9 16V15.15V16ZM10 17H9.15H10ZM10 21.7586H10.85H10ZM16 12.85C16.4694 12.85 16.85 12.4694 16.85 12C16.85 11.5306 16.4694 11.15 16 11.15V12.85ZM8 11.15C7.53056 11.15 7.15 11.5306 7.15 12C7.15 12.4694 7.53056 12.85 8 12.85V11.15ZM16 16.85C16.4694 16.85 16.85 16.4694 16.85 16C16.85 15.5306 16.4694 15.15 16 15.15V16.85ZM14 15.15C13.5306 15.15 13.15 15.5306 13.15 16C13.15 16.4694 13.5306 16.85 14 16.85V15.15ZM16 8.85C16.4694 8.85 16.85 8.46944 16.85 8C16.85 7.53056 16.4694 7.15 16 7.15V8.85ZM8 7.15C7.53056 7.15 7.15 7.53056 7.15 8C7.15 8.46944 7.53056 8.85 8 8.85V7.15ZM7.2 2V2.85L16.8 2.85V2V1.15L7.2 1.15V2ZM20 5.2H19.15V18.8H20H20.85V5.2H20ZM20 18.8H19.15C19.15 19.3741 19.1493 19.7535 19.1256 20.0444C19.1026 20.3253 19.0624 20.448 19.0247 20.5221L19.782 20.908L20.5394 21.2939C20.7196 20.9402 20.7884 20.5689 20.8199 20.1828C20.8507 19.8067 20.85 19.346 20.85 18.8H20ZM16.8 22V22.85C17.346 22.85 17.8067 22.8507 18.1828 22.8199C18.5689 22.7884 18.9402 22.7196 19.2939 22.5394L18.908 21.782L18.5221 21.0247C18.448 21.0624 18.3253 21.1026 18.0444 21.1256C17.7535 21.1493 17.3741 21.15 16.8 21.15V22ZM19.782 20.908L19.0247 20.5221C18.9144 20.7385 18.7385 20.9144 18.5221 21.0247L18.908 21.782L19.2939 22.5394C19.8301 22.2661 20.2661 21.8301 20.5394 21.2939L19.782 20.908ZM16.8 2V2.85C17.3741 2.85 17.7535 2.85066 18.0444 2.87443C18.3253 2.89738 18.448 2.93758 18.5221 2.97534L18.908 2.21799L19.2939 1.46063C18.9402 1.28041 18.5689 1.21162 18.1828 1.18007C17.8067 1.14934 17.346 1.15 16.8 1.15V2ZM20 5.2H20.85C20.85 4.65397 20.8507 4.19333 20.8199 3.81719C20.7884 3.43112 20.7196 3.05984 20.5394 2.70613L19.782 3.09202L19.0247 3.47791C19.0624 3.55203 19.1026 3.67468 19.1256 3.95562C19.1493 4.24648 19.15 4.62592 19.15 5.2H20ZM18.908 2.21799L18.5221 2.97534C18.7385 3.0856 18.9144 3.26153 19.0247 3.47791L19.782 3.09202L20.5394 2.70613C20.2661 2.16987 19.8301 1.73387 19.2939 1.46063L18.908 2.21799ZM7.2 2V1.15C6.65397 1.15 6.19333 1.14934 5.81719 1.18007C5.43112 1.21161 5.05984 1.28041 4.70613 1.46063L5.09202 2.21799L5.47791 2.97534C5.55203 2.93758 5.67468 2.89738 5.95562 2.87443C6.24648 2.85066 6.62592 2.85 7.2 2.85V2ZM4 5.2H4.85C4.85 4.62592 4.85066 4.24648 4.87443 3.95562C4.89738 3.67468 4.93758 3.55202 4.97534 3.47791L4.21799 3.09202L3.46063 2.70613C3.28041 3.05984 3.21162 3.43112 3.18007 3.81719C3.14934 4.19333 3.15 4.65397 3.15 5.2H4ZM5.09202 2.21799L4.70613 1.46063C4.16987 1.73387 3.73387 2.16986 3.46063 2.70613L4.21799 3.09202L4.97534 3.47791C5.0856 3.26152 5.26153 3.0856 5.47791 2.97534L5.09202 2.21799ZM4 16H4.85L4.85 5.2H4H3.15L3.15 16H4ZM16.8 22V21.15H10V22V22.85H16.8V22ZM4.17071 16.1707L3.56967 16.7718L9.22825 22.4303L9.82929 21.8293L10.4303 21.2283L4.77175 15.5697L4.17071 16.1707ZM4.24142 16V16.85H9V16V15.15H4.24142V16ZM10 17H9.15V21.7586H10H10.85V17H10ZM9 16V16.85C9.08284 16.85 9.15 16.9172 9.15 17H10H10.85C10.85 15.9783 10.0217 15.15 9 15.15V16ZM9.82929 21.8293L9.22825 22.4303C9.82672 23.0288 10.85 22.6049 10.85 21.7586H10H9.15C9.15 21.0904 9.95785 20.7558 10.4303 21.2283L9.82929 21.8293ZM4.17071 16.1707L4.77175 15.5697C5.24423 16.0421 4.9096 16.85 4.24142 16.85L4.24142 16L4.24142 15.15C3.39506 15.15 2.9712 16.1733 3.56967 16.7718L4.17071 16.1707ZM16 12V11.15H8V12V12.85H16V12ZM16 16V15.15H14V16V16.85H16V16ZM16 8V7.15H8V8V8.85H16V8Z" fill="#FFFFFF"/>
</svg>
