<svg width="48" height="48" viewBox="0 0 48 48" fill="none" xmlns="http://www.w3.org/2000/svg">
<circle cx="24" cy="24" r="23.5" stroke="#CBD5E0"/>
<path fill-rule="evenodd" clip-rule="evenodd" d="M23.0999 13.25C19.7044 13.25 17.0772 16.226 17.4983 19.5954L17.5777 20.2302C17.6938 21.1592 17.3545 22.0871 16.6665 22.7219C15.2408 24.0375 14.8447 26.1315 15.6914 27.8769L15.7947 28.09C16.5839 29.7169 18.2332 30.75 20.0414 30.75H28.2622C29.8219 30.75 31.2736 29.9532 32.111 28.6373C33.2931 26.7799 32.98 24.3432 31.3667 22.845L31.3229 22.8042C30.5843 22.1183 30.2207 21.1191 30.3457 20.119L30.4103 19.6021C30.832 16.2292 28.202 13.25 24.8028 13.25H23.0999ZM18.9868 19.4093C18.6775 16.9353 20.6066 14.75 23.0999 14.75H24.8028C27.2997 14.75 29.2316 16.9384 28.9219 19.416L28.8573 19.933C28.6725 21.4117 29.2101 22.8892 30.3021 23.9033L30.346 23.9441C31.4289 24.9497 31.639 26.5852 30.8456 27.832C30.2835 28.7152 29.3091 29.25 28.2622 29.25H20.0414C18.8078 29.25 17.6827 28.5452 17.1443 27.4353L17.041 27.2223C16.4829 26.0718 16.744 24.6915 17.6837 23.8243C18.7275 22.8611 19.2423 21.4535 19.0661 20.0442L18.9868 19.4093Z" fill="#0088CC"/>
<path d="M21.7833 32.55C21.5348 32.2186 21.0647 32.1515 20.7333 32.4C20.402 32.6485 20.3348 33.1186 20.5833 33.45L20.8833 33.85C22.5333 36.05 25.8333 36.05 27.4833 33.85L27.7833 33.45C28.0319 33.1186 27.9647 32.6485 27.6333 32.4C27.302 32.1515 26.8319 32.2186 26.5833 32.55L26.2833 32.95C25.2333 34.35 23.1333 34.35 22.0833 32.95L21.7833 32.55Z" fill="#0088CC"/>
</svg>
