<svg width="23" height="23" viewBox="0 0 23 23" fill="none" xmlns="http://www.w3.org/2000/svg">
<path d="M8.73325 17.25C8.73325 17.7194 9.11381 18.1 9.58325 18.1C10.0527 18.1 10.4333 17.7194 10.4333 17.25H8.73325ZM10.4333 5.75001C10.4333 5.28057 10.0527 4.90001 9.58325 4.90001C9.11381 4.90001 8.73325 5.28057 8.73325 5.75001L10.4333 5.75001ZM4.89992 17.25C4.89992 17.7194 5.28048 18.1 5.74992 18.1C6.21936 18.1 6.59992 17.7194 6.59992 17.25H4.89992ZM6.59992 14.375C6.59992 13.9056 6.21936 13.525 5.74992 13.525C5.28048 13.525 4.89992 13.9056 4.89992 14.375H6.59992ZM12.5666 17.25C12.5666 17.7194 12.9471 18.1 13.4166 18.1C13.886 18.1 14.2666 17.7194 14.2666 17.25H12.5666ZM14.2666 8.62501C14.2666 8.15557 13.886 7.77501 13.4166 7.77501C12.9471 7.77501 12.5666 8.15557 12.5666 8.62501H14.2666ZM16.3999 17.25C16.3999 17.7194 16.7805 18.1 17.2499 18.1C17.7194 18.1 18.0999 17.7194 18.0999 17.25H16.3999ZM18.0999 11.5C18.0999 11.0306 17.7194 10.65 17.2499 10.65C16.7805 10.65 16.3999 11.0306 16.3999 11.5H18.0999ZM3.57455 21.5194L3.96044 20.7621H3.96044L3.57455 21.5194ZM1.48051 19.4254L2.23787 19.0395H2.23787L1.48051 19.4254ZM21.5193 19.4254L20.762 19.0395L21.5193 19.4254ZM19.4253 21.5194L19.0394 20.7621L19.4253 21.5194ZM19.4253 1.4806L19.0394 2.23796V2.23796L19.4253 1.4806ZM21.5193 3.57464L20.762 3.96053V3.96053L21.5193 3.57464ZM3.57455 1.4806L3.96044 2.23796L3.57455 1.4806ZM1.48051 3.57464L2.23787 3.96053L1.48051 3.57464ZM9.58325 17.25H10.4333L10.4333 5.75001H9.58325L8.73325 5.75001L8.73325 17.25H9.58325ZM5.74992 17.25H6.59992V14.375H5.74992H4.89992V17.25H5.74992ZM13.4166 17.25H14.2666V8.62501H13.4166H12.5666V17.25H13.4166ZM17.2499 17.25H18.0999V11.5H17.2499H16.3999V17.25H17.2499ZM8.62492 0.958344V1.80834H14.3749V0.958344V0.108343H8.62492V0.958344ZM22.0416 8.62501H21.1916V14.375H22.0416H22.8916V8.62501H22.0416ZM14.3749 22.0417V21.1917H8.62492V22.0417V22.8917H14.3749V22.0417ZM0.958252 14.375H1.80825V8.62501H0.958252H0.108252V14.375H0.958252ZM8.62492 22.0417V21.1917C7.2691 21.1917 6.30336 21.191 5.54698 21.1292C4.80052 21.0682 4.33314 20.952 3.96044 20.7621L3.57455 21.5194L3.18866 22.2768C3.84095 22.6091 4.55696 22.754 5.40854 22.8236C6.25021 22.8923 7.29715 22.8917 8.62492 22.8917V22.0417ZM0.958252 14.375H0.108252C0.108252 15.7028 0.107591 16.7497 0.176357 17.5914C0.245935 18.443 0.390796 19.159 0.723157 19.8113L1.48051 19.4254L2.23787 19.0395C2.04797 18.6668 1.9317 18.1994 1.87071 17.4529C1.80891 16.6966 1.80825 15.7308 1.80825 14.375H0.958252ZM3.57455 21.5194L3.96044 20.7621C3.21877 20.3842 2.61577 19.7812 2.23787 19.0395L1.48051 19.4254L0.723157 19.8113C1.26404 20.8728 2.12711 21.7359 3.18866 22.2768L3.57455 21.5194ZM22.0416 14.375H21.1916C21.1916 15.7308 21.1909 16.6966 21.1291 17.4529C21.0681 18.1994 20.9519 18.6668 20.762 19.0395L21.5193 19.4254L22.2767 19.8113C22.609 19.159 22.7539 18.443 22.8235 17.5914C22.8922 16.7497 22.8916 15.7028 22.8916 14.375H22.0416ZM14.3749 22.0417V22.8917C15.7027 22.8917 16.7496 22.8923 17.5913 22.8236C18.4429 22.754 19.1589 22.6091 19.8112 22.2768L19.4253 21.5194L19.0394 20.7621C18.6667 20.952 18.1993 21.0682 17.4529 21.1292C16.6965 21.191 15.7307 21.1917 14.3749 21.1917V22.0417ZM21.5193 19.4254L20.762 19.0395C20.3841 19.7812 19.7811 20.3842 19.0394 20.7621L19.4253 21.5194L19.8112 22.2768C20.8727 21.7359 21.7358 20.8728 22.2767 19.8113L21.5193 19.4254ZM14.3749 0.958344V1.80834C15.7307 1.80834 16.6965 1.809 17.4529 1.8708C18.1993 1.93179 18.6667 2.04806 19.0394 2.23796L19.4253 1.4806L19.8112 0.723248C19.1589 0.390888 18.4429 0.246026 17.5913 0.176449C16.7496 0.107682 15.7027 0.108343 14.3749 0.108343V0.958344ZM22.0416 8.62501H22.8916C22.8916 7.29724 22.8922 6.2503 22.8235 5.40864C22.7539 4.55705 22.609 3.84104 22.2767 3.18875L21.5193 3.57464L20.762 3.96053C20.9519 4.33323 21.0681 4.80061 21.1291 5.54707C21.1909 6.30345 21.1916 7.26919 21.1916 8.62501H22.0416ZM19.4253 1.4806L19.0394 2.23796C19.7811 2.61586 20.3841 3.21886 20.762 3.96053L21.5193 3.57464L22.2767 3.18875C21.7358 2.1272 20.8727 1.26413 19.8112 0.723248L19.4253 1.4806ZM8.62492 0.958344V0.108343C7.29715 0.108343 6.25021 0.107682 5.40854 0.176449C4.55696 0.246026 3.84095 0.390888 3.18866 0.723248L3.57455 1.4806L3.96044 2.23796C4.33314 2.04806 4.80052 1.93179 5.54698 1.8708C6.30336 1.809 7.2691 1.80834 8.62492 1.80834V0.958344ZM0.958252 8.62501H1.80825C1.80825 7.26919 1.80891 6.30345 1.87071 5.54707C1.9317 4.80061 2.04797 4.33323 2.23787 3.96053L1.48051 3.57464L0.723157 3.18875C0.390796 3.84104 0.245935 4.55705 0.176357 5.40864C0.107591 6.2503 0.108252 7.29724 0.108252 8.62501H0.958252ZM3.57455 1.4806L3.18866 0.723248C2.12711 1.26413 1.26404 2.1272 0.723157 3.18875L1.48051 3.57464L2.23787 3.96053C2.61577 3.21886 3.21877 2.61586 3.96044 2.23796L3.57455 1.4806Z" fill="#0088CC"/>
</svg>
