<svg width="22" height="22" viewBox="0 0 22 22" fill="none" xmlns="http://www.w3.org/2000/svg">
<path d="M6.04984 17.4166V16.5666V17.4166ZM13.1998 17.4166V18.2666V17.4166ZM15.5832 14.9233H14.7332H15.5832ZM15.5832 4.32665H16.4332H15.5832ZM15.4208 2.68418L14.6566 3.05637V3.05637L15.4208 2.68418ZM13.1998 1.83331V0.983313V1.83331ZM14.7698 2.00316L14.37 2.75325V2.75325L14.7698 2.00316ZM14.7698 17.2468L15.1697 17.9969L14.7698 17.2468ZM15.4208 16.5658L14.6566 16.1936L15.4208 16.5658ZM4.47983 17.2468L4.08 17.9969H4.08L4.47983 17.2468ZM3.6665 14.9233H4.5165H3.6665ZM3.82886 16.5658L4.59304 16.1936L3.82886 16.5658ZM4.5165 7.33331C4.5165 6.86387 4.13595 6.48331 3.6665 6.48331C3.19706 6.48331 2.8165 6.86387 2.8165 7.33331L4.5165 7.33331ZM9.1665 0.983313C8.69706 0.983313 8.3165 1.36387 8.3165 1.83331C8.3165 2.30276 8.69706 2.68331 9.1665 2.68331V0.983313ZM3.82299 7.17683L4.42403 7.77787L3.82299 7.17683ZM9.01002 1.9898L9.61106 2.59084V2.59084L9.01002 1.9898ZM3.88781 7.33331L3.88781 8.18331L3.88781 7.33331ZM8.24984 7.33331L8.24984 6.48331L8.24984 7.33331ZM9.16651 6.41665H10.0165H9.16651ZM9.16651 2.05461L8.31651 2.05461L9.16651 2.05461ZM6.4165 19.3166C5.94706 19.3166 5.5665 19.6972 5.5665 20.1666C5.5665 20.6361 5.94706 21.0166 6.4165 21.0166V19.3166ZM19.1832 4.58331C19.1832 4.11387 18.8026 3.73331 18.3332 3.73331C17.8637 3.73331 17.4832 4.11387 17.4832 4.58331H19.1832ZM17.345 19.9602L16.9531 19.2059L16.9531 19.2059L17.345 19.9602ZM18.1268 19.1784L18.8811 19.5703L18.1268 19.1784ZM6.04984 17.4166V18.2666H13.1998V17.4166V16.5666H6.04984V17.4166ZM15.5832 14.9233H16.4332L16.4332 4.32665H15.5832L14.7332 4.32665L14.7332 14.9233H15.5832ZM15.5832 4.32665H16.4332C16.4332 3.90369 16.4338 3.53759 16.4103 3.23695C16.3861 2.92747 16.3326 2.615 16.185 2.31198L15.4208 2.68418L14.6566 3.05637C14.6714 3.0867 14.699 3.15909 14.7155 3.36932C14.7326 3.58839 14.7332 3.87686 14.7332 4.32665L15.5832 4.32665ZM13.1998 1.83331V2.68331C13.6316 2.68331 13.902 2.68404 14.1058 2.70146C14.2985 2.71793 14.3538 2.74461 14.37 2.75325L14.7698 2.00316L15.1697 1.25307C14.8672 1.09186 14.5547 1.03362 14.2506 1.00763C13.9576 0.98259 13.6023 0.983313 13.1998 0.983313V1.83331ZM15.4208 2.68418L16.185 2.31199C15.9659 1.86215 15.6127 1.48924 15.1697 1.25307L14.7698 2.00316L14.37 2.75325C14.4875 2.81589 14.5901 2.91976 14.6566 3.05637L15.4208 2.68418ZM13.1998 17.4166V18.2666C13.6023 18.2666 13.9576 18.2674 14.2506 18.2423C14.5547 18.2163 14.8672 18.1581 15.1697 17.9969L14.7698 17.2468L14.37 16.4967C14.3538 16.5053 14.2985 16.532 14.1058 16.5485C13.902 16.5659 13.6316 16.5666 13.1998 16.5666V17.4166ZM15.5832 14.9233H14.7332C14.7332 15.3731 14.7326 15.6616 14.7155 15.8806C14.699 16.0909 14.6714 16.1633 14.6566 16.1936L15.4208 16.5658L16.185 16.938C16.3326 16.635 16.3861 16.3225 16.4103 16.013C16.4338 15.7124 16.4332 15.3463 16.4332 14.9233H15.5832ZM14.7698 17.2468L15.1697 17.9969C15.6127 17.7607 15.9659 17.3878 16.185 16.938L15.4208 16.5658L14.6566 16.1936C14.5901 16.3302 14.4875 16.4341 14.37 16.4967L14.7698 17.2468ZM6.04984 17.4166V16.5666C5.61805 16.5666 5.34767 16.5659 5.14387 16.5485C4.95118 16.532 4.89587 16.5053 4.87966 16.4967L4.47983 17.2468L4.08 17.9969C4.38243 18.1581 4.695 18.2163 4.99909 18.2423C5.29207 18.2674 5.64738 18.2666 6.04984 18.2666V17.4166ZM3.6665 14.9233H2.8165C2.8165 15.3463 2.8159 15.7124 2.83938 16.013C2.86355 16.3225 2.91709 16.635 3.06468 16.938L3.82886 16.5658L4.59304 16.1936C4.57827 16.1633 4.55064 16.0909 4.53422 15.8806C4.51711 15.6616 4.5165 15.3731 4.5165 14.9233H3.6665ZM4.47983 17.2468L4.87966 16.4967C4.76215 16.4341 4.65957 16.3302 4.59304 16.1936L3.82886 16.5658L3.06468 16.938C3.28377 17.3878 3.63694 17.7607 4.08 17.9969L4.47983 17.2468ZM3.6665 7.33331L2.8165 7.33331L2.8165 14.9233H3.6665H4.5165L4.5165 7.33331H3.6665ZM13.1998 1.83331V0.983313L9.1665 0.983313V1.83331V2.68331L13.1998 2.68331V1.83331ZM3.82299 7.17683L4.42403 7.77787L9.61106 2.59084L9.01002 1.9898L8.40898 1.38876L3.22195 6.57579L3.82299 7.17683ZM3.88781 7.33331L3.88781 8.18331L8.24984 8.18331V7.33331L8.24984 6.48331L3.88781 6.48331L3.88781 7.33331ZM9.16651 6.41665H10.0165L10.0165 2.05461L9.16651 2.05461L8.31651 2.05461L8.31651 6.41665H9.16651ZM8.24984 7.33331V8.18331C9.22554 8.18331 10.0165 7.39235 10.0165 6.41665H9.16651H8.31651C8.31651 6.45346 8.28666 6.48331 8.24984 6.48331L8.24984 7.33331ZM9.01002 1.9898L9.61106 2.59084C9.13334 3.06856 8.31651 2.73022 8.31651 2.05461L9.16651 2.05461L10.0165 2.05461C10.0165 1.21568 9.00219 0.795541 8.40898 1.38876L9.01002 1.9898ZM3.82299 7.17683L3.22195 6.57579C2.62873 7.169 3.04887 8.18331 3.88781 8.18331L3.88781 7.33331L3.88781 6.48331C4.56341 6.48331 4.90175 7.30014 4.42403 7.77787L3.82299 7.17683ZM6.4165 20.1666V21.0166H15.3815V20.1666V19.3166H6.4165V20.1666ZM18.3332 17.215H19.1832V4.58331H18.3332H17.4832V17.215H18.3332ZM15.3815 20.1666V21.0166C15.8893 21.0166 16.3221 21.0173 16.6761 20.9879C17.0403 20.9577 17.3966 20.8913 17.7368 20.7145L17.345 19.9602L16.9531 19.2059C16.896 19.2356 16.7926 19.2724 16.5354 19.2938C16.2681 19.316 15.9178 19.3166 15.3815 19.3166V20.1666ZM18.3332 17.215H17.4832C17.4832 17.7513 17.4825 18.1015 17.4603 18.3689C17.4389 18.6261 17.4021 18.7295 17.3725 18.7866L18.1268 19.1784L18.8811 19.5703C19.0578 19.23 19.1242 18.8738 19.1545 18.5096C19.1839 18.1555 19.1832 17.7227 19.1832 17.215H18.3332ZM17.345 19.9602L17.7368 20.7145C18.2269 20.46 18.6265 20.0604 18.8811 19.5703L18.1268 19.1784L17.3725 18.7866C17.2792 18.9662 17.1327 19.1126 16.9531 19.2059L17.345 19.9602Z" fill="#00AA67"/>
</svg>
