<svg width="22" height="22" viewBox="0 0 22 22" fill="none" xmlns="http://www.w3.org/2000/svg">
<path d="M3.15365 11.9353C2.92987 11.7435 2.81798 11.6476 2.77699 11.5335C2.741 11.4333 2.741 11.3237 2.77699 11.2236C2.81798 11.1094 2.92987 11.0135 3.15365 10.8217L10.9185 4.16614C11.3037 3.83596 11.4963 3.67087 11.6594 3.66683C11.8011 3.66331 11.9365 3.72557 12.026 3.83546C12.1291 3.9619 12.1291 4.21558 12.1291 4.72293V8.66025C14.0859 9.00258 15.8768 9.99411 17.2077 11.4829C18.6586 13.106 19.4613 15.2065 19.4624 17.3836V17.9446C18.5005 16.7858 17.2995 15.8486 15.9417 15.1973C14.7446 14.623 13.4505 14.2828 12.1291 14.1932V18.0341C12.1291 18.5414 12.1291 18.7951 12.026 18.9215C11.9365 19.0314 11.8011 19.0937 11.6594 19.0902C11.4963 19.0861 11.3037 18.921 10.9185 18.5909L3.15365 11.9353Z" stroke="#00AA67" stroke-width="1.7" stroke-linecap="round" stroke-linejoin="round"/>
</svg>
