<svg width="24" height="24" viewBox="0 0 24 24" fill="none" xmlns="http://www.w3.org/2000/svg">
<path d="M3.44034 13.0203C3.19622 12.811 3.07416 12.7064 3.02944 12.5819C2.99019 12.4727 2.99019 12.3531 3.02944 12.2439C3.07416 12.1194 3.19622 12.0147 3.44034 11.8055L11.9111 4.54486C12.3313 4.18466 12.5414 4.00457 12.7193 4.00015C12.8739 3.99632 13.0216 4.06424 13.1193 4.18412C13.2317 4.32205 13.2317 4.59879 13.2317 5.15226V9.44752C15.3664 9.82098 17.3201 10.9026 18.772 12.5268C20.3549 14.2974 21.2305 16.5888 21.2317 18.9639V19.5759C20.1824 18.3118 18.8722 17.2894 17.3909 16.5788C16.085 15.9523 14.6733 15.5812 13.2317 15.4834V19.6735C13.2317 20.227 13.2317 20.5037 13.1193 20.6417C13.0216 20.7615 12.8739 20.8295 12.7193 20.8256C12.5414 20.8212 12.3313 20.6411 11.9111 20.2809L3.44034 13.0203Z" stroke="#0088CC" stroke-width="1.7" stroke-linecap="round" stroke-linejoin="round"/>
</svg>
