<svg width="22" height="22" viewBox="0 0 22 22" fill="none" xmlns="http://www.w3.org/2000/svg">
<path d="M8.39056 4.95766C9.55166 2.87476 10.1322 1.83331 11.0002 1.83331C11.8681 1.83331 12.4487 2.87476 13.6098 4.95766L13.9102 5.49653C14.2401 6.08842 14.4051 6.38437 14.6623 6.57964C14.9195 6.7749 15.2399 6.84739 15.8806 6.99236L16.4639 7.12434C18.7186 7.63449 19.846 7.88956 20.1142 8.75207C20.3824 9.61457 19.6139 10.5133 18.0767 12.3107L17.6791 12.7758C17.2423 13.2865 17.0239 13.5419 16.9256 13.8579C16.8274 14.1738 16.8604 14.5146 16.9264 15.1961L16.9865 15.8165C17.2189 18.2147 17.3351 19.4138 16.6329 19.9468C15.9308 20.4799 14.8752 19.9939 12.7641 19.0219L12.218 18.7704C11.6181 18.4942 11.3181 18.3561 11.0002 18.3561C10.6822 18.3561 10.3823 18.4942 9.78236 18.7704L9.2362 19.0219C7.12511 19.9939 6.06957 20.4799 5.36738 19.9468C4.66519 19.4138 4.78139 18.2147 5.01378 15.8165L5.0739 15.1961C5.13994 14.5146 5.17296 14.1738 5.0747 13.8579C4.97645 13.5419 4.75805 13.2865 4.32125 12.7758L3.92359 12.3107C2.38647 10.5133 1.61792 9.61457 1.88613 8.75207C2.15435 7.88956 3.2817 7.63449 5.5364 7.12434L6.11973 6.99236C6.76044 6.84739 7.0808 6.7749 7.33803 6.57964C7.59525 6.38437 7.76023 6.08842 8.09017 5.49653L8.39056 4.95766Z" stroke="#00AA67" stroke-width="1.7"/>
</svg>
