<svg width="8" height="12" viewBox="0 0 8 12" fill="none" xmlns="http://www.w3.org/2000/svg">
<path d="M5.4 10C5.12386 10 4.9 10.2239 4.9 10.5C4.9 10.7761 5.12386 11 5.4 11V10ZM6.45399 10.385L6.69083 10.8253L6.69083 10.8253L6.45399 10.385ZM6.89101 9.92366L6.44072 9.7063L6.44072 9.7063L6.89101 9.92366ZM1.54601 1.11505L1.78284 1.5554L1.78284 1.5554L1.54601 1.11505ZM0.5 2.68889C0.5 2.96503 0.723858 3.18889 1 3.18889C1.27614 3.18889 1.5 2.96503 1.5 2.68889H0.5ZM1.10899 1.57634L1.55928 1.7937L1.55928 1.7937L1.10899 1.57634ZM6.89101 1.57634L6.44072 1.7937L6.44072 1.7937L6.89101 1.57634ZM6.45399 1.11505L6.69083 0.674698L6.69083 0.674698L6.45399 1.11505ZM2.36565 1.53651L2.18283 2.00188L2.18283 2.00188L2.36565 1.53651ZM4.36565 2.32222L4.54848 1.85684L4.54848 1.85684L4.36565 2.32222ZM3.63435 11.4635L3.81717 10.9981L3.81717 10.9981L3.63435 11.4635ZM1.63435 10.6778L1.45152 11.1432L1.45152 11.1432L1.63435 10.6778ZM5.4 1V0.5H2.6V1V1.5H5.4V1ZM5.4 10.5V11C5.67132 11 5.90655 11.0004 6.09976 10.9838C6.29966 10.9665 6.49931 10.9283 6.69083 10.8253L6.45399 10.385L6.21716 9.9446C6.19476 9.95665 6.14744 9.97595 6.01384 9.98747C5.87355 9.99957 5.68873 10 5.4 10V10.5ZM7 8.81111H6.5C6.5 9.11451 6.49965 9.31357 6.48787 9.46581C6.47648 9.61296 6.4567 9.67319 6.44072 9.7063L6.89101 9.92366L7.34129 10.141C7.4343 9.94832 7.46903 9.74787 7.48488 9.54298C7.50035 9.34319 7.5 9.09887 7.5 8.81111H7ZM6.45399 10.385L6.69083 10.8253C6.97503 10.6724 7.20115 10.4313 7.34129 10.141L6.89101 9.92366L6.44072 9.7063C6.38912 9.81321 6.30927 9.89506 6.21715 9.9446L6.45399 10.385ZM2.6 1V0.5C2.32868 0.5 2.09345 0.499567 1.90024 0.51623C1.70034 0.53347 1.50069 0.571696 1.30917 0.674698L1.54601 1.11505L1.78284 1.5554C1.80524 1.54335 1.85256 1.52405 1.98616 1.51253C2.12645 1.50043 2.31127 1.5 2.6 1.5V1ZM1 2.68889H1.5C1.5 2.38549 1.50035 2.18643 1.51213 2.03419C1.52352 1.88704 1.5433 1.82681 1.55928 1.7937L1.10899 1.57634L0.658709 1.35899C0.565696 1.55168 0.530974 1.75213 0.515115 1.95702C0.499651 2.15681 0.5 2.40113 0.5 2.68889H1ZM1.54601 1.11505L1.30917 0.674697C1.02497 0.827553 0.798849 1.06867 0.658709 1.35899L1.10899 1.57634L1.55928 1.7937C1.61088 1.68679 1.69073 1.60494 1.78284 1.5554L1.54601 1.11505ZM7 2.68889H7.5C7.5 2.40113 7.50035 2.15681 7.48488 1.95702C7.46903 1.75213 7.4343 1.55168 7.34129 1.35899L6.89101 1.57634L6.44072 1.7937C6.4567 1.82681 6.47648 1.88704 6.48787 2.03419C6.49965 2.18643 6.5 2.38549 6.5 2.68889H7ZM5.4 1V1.5C5.68873 1.5 5.87354 1.50043 6.01384 1.51253C6.14744 1.52405 6.19476 1.54335 6.21716 1.5554L6.45399 1.11505L6.69083 0.674698C6.49931 0.571696 6.29966 0.53347 6.09976 0.51623C5.90655 0.499567 5.67132 0.5 5.4 0.5V1ZM6.89101 1.57634L7.34129 1.35899C7.20115 1.06867 6.97503 0.827553 6.69083 0.674698L6.45399 1.11505L6.21716 1.5554C6.30927 1.60494 6.38912 1.68679 6.44072 1.7937L6.89101 1.57634ZM7 2.68889H6.5V8.81111H7H7.5V2.68889H7ZM2.36565 1.53651L2.18283 2.00188L4.18283 2.7876L4.36565 2.32222L4.54848 1.85684L2.54848 1.07113L2.36565 1.53651ZM5 3.25297H4.5V10.5327H5H5.5V3.25297H5ZM3.63435 11.4635L3.81717 10.9981L1.81717 10.2124L1.63435 10.6778L1.45152 11.1432L3.45152 11.9289L3.63435 11.4635ZM1 9.74703H1.5V2.46726H1H0.5V9.74703H1ZM1.63435 10.6778L1.81717 10.2124C1.62583 10.1372 1.5 9.95261 1.5 9.74703H1H0.5C0.5 10.3638 0.877494 10.9176 1.45152 11.1432L1.63435 10.6778ZM5 10.5327H4.5C4.5 10.8852 4.14518 11.127 3.81717 10.9981L3.63435 11.4635L3.45152 11.9289C4.43556 12.3155 5.5 11.59 5.5 10.5327H5ZM4.36565 2.32222L4.18283 2.7876C4.37417 2.86277 4.5 3.04739 4.5 3.25297H5H5.5C5.5 2.63624 5.12251 2.08236 4.54848 1.85684L4.36565 2.32222ZM2.36565 1.53651L2.54848 1.07113C1.56444 0.684546 0.5 1.41002 0.5 2.46726H1H1.5C1.5 2.11484 1.85482 1.87302 2.18283 2.00188L2.36565 1.53651Z" fill="#0088CC"/>
</svg>
