<svg width="43" height="49" viewBox="0 0 43 49" fill="none" xmlns="http://www.w3.org/2000/svg">
<path d="M42.043 21.5583C41.747 19.8766 40.8043 18.401 39.4063 17.4341C36.5419 15.427 32.5573 16.1419 30.5627 19.0242C30.3578 19.3221 30.1711 19.6475 30.0117 20.037C29.9662 20.1515 29.9207 20.2432 29.8979 20.3348L29.8751 20.3806C29.784 20.6556 29.693 20.8893 29.6474 21.1184C29.6019 21.2559 29.5791 21.3934 29.5563 21.5354C29.5108 21.7646 29.4653 22.0441 29.4653 22.342C29.4653 22.6398 29.4425 22.4565 29.4425 22.5023V22.6169L29.5791 24.0237C29.6247 24.207 29.693 24.3903 29.7385 24.5782L29.7613 24.6699C29.784 24.7157 29.8068 24.7844 29.8068 24.8302C29.8296 24.8532 29.8296 24.8761 29.8296 24.899L29.8523 24.9448V25.0135C29.8751 25.1281 29.8979 25.2198 29.9207 25.3343C30.3578 27.731 29.7613 30.2926 28.2949 32.3638C26.8286 34.4168 24.6063 35.8007 22.2019 36.1673H22.1564C21.5826 36.1444 20.986 36.2131 20.4168 36.3964L20.7037 32.7671C23.0489 33.1291 25.508 32.153 26.9288 30.0543C27.1246 29.7656 27.3022 29.4311 27.4752 29.0324C27.5253 28.9224 27.5572 28.8307 27.5936 28.7345L27.6119 28.6841C27.7029 28.4275 27.7803 28.18 27.8395 27.9463C27.876 27.8089 27.9033 27.6805 27.9261 27.5522C27.9716 27.3002 27.9944 27.0344 28.008 26.7411C28.008 26.677 28.0171 26.622 28.0217 26.567C28.0217 26.5349 28.0263 26.4983 28.0308 26.4616L27.8669 25.0502C27.8259 24.8761 27.7667 24.6928 27.7029 24.5003L27.6756 24.4178C27.6574 24.3537 27.6392 24.2941 27.6255 24.2391C27.621 24.2162 27.6164 24.1933 27.6073 24.1704L27.5936 24.1245L27.5754 24.065C27.5527 23.9596 27.5299 23.8588 27.5117 23.7534C27.0608 21.3476 27.6346 18.7768 29.0827 16.7055C30.5309 14.6388 32.7349 13.232 35.1348 12.8471L35.1803 12.8379C37.2341 12.8562 39.256 11.8801 40.4992 10.0517C41.4555 8.64491 41.8062 6.94481 41.492 5.26763C41.3417 4.46569 41.0457 3.71416 40.6267 3.04054C40.1668 2.30734 39.5657 1.67038 38.8325 1.1663C38.7232 1.0884 38.6094 1.01966 38.491 0.950927C37.1613 0.153575 35.6038 -0.130538 34.0692 0.162741C34.0191 0.171906 33.969 0.185654 33.9189 0.194818C32.316 0.538505 30.927 1.46875 30.0026 2.83891C29.9707 2.88474 29.9434 2.93056 29.9161 2.97638C29.0281 4.36029 28.7048 6.00541 29.0099 7.63219C29.0873 8.04461 29.2057 8.44787 29.356 8.8328C29.3787 8.94278 29.4015 9.04359 29.4197 9.14899C29.8706 11.5548 29.2968 14.1256 27.8487 16.1968C26.4005 18.2635 24.1965 19.6704 21.8012 20.0507L21.7328 20.0645H21.6645C21.5871 20.0645 21.5097 20.0736 21.4323 20.0828C21.3685 20.092 21.3048 20.1011 21.2365 20.1057L21.0407 20.1194C20.9223 20.124 20.8039 20.1332 20.6855 20.1515L19.3922 20.4952L19.3648 20.509H19.3375C19.3102 20.5273 19.1463 20.6098 19.1463 20.6098C18.8275 20.7518 18.5952 20.871 18.3949 20.9901C18.2856 21.0589 18.1763 21.1368 18.067 21.2147C17.8621 21.3613 17.6572 21.5217 17.4522 21.705L17.4204 21.7325C17.3384 21.8058 17.261 21.8745 17.1836 21.9524C16.8693 22.2686 16.6325 22.5527 16.4413 22.8369C15.485 24.2483 15.1298 25.9484 15.444 27.6301C15.5806 28.3542 15.8356 29.037 16.1908 29.6602L12.6844 31.067C12.6616 30.9524 12.6388 30.815 12.6161 30.6729C12.5477 30.2559 12.4339 29.8664 12.2973 29.4723H12.2745C12.2745 29.3806 12.2517 29.2661 12.229 29.1744C11.7918 26.7549 12.3884 24.1933 13.8547 22.122C15.321 20.069 17.5433 18.6851 19.9477 18.3414L20.016 18.3185H20.0844C20.1527 18.3185 20.2437 18.3185 20.312 18.2956C20.3804 18.2956 20.4487 18.2956 20.4942 18.2727H20.6991C20.813 18.2727 20.9268 18.2498 21.0407 18.2269L22.3476 17.9061L22.3704 17.8832H22.3932C22.4387 17.8832 22.5981 17.7915 22.5981 17.7915C22.9168 17.6541 23.1491 17.5395 23.354 17.4204C23.4679 17.3516 23.5589 17.2829 23.6728 17.1912C23.8777 17.0538 24.0872 16.8934 24.2921 16.7055L24.3376 16.6826C24.406 16.6138 24.497 16.5451 24.5653 16.4535C24.8841 16.1556 25.1163 15.8761 25.3213 15.5782C26.2821 14.1943 26.651 12.4896 26.3504 10.8078C26.0544 9.12607 25.1118 7.65052 23.7411 6.68361C20.854 4.67649 16.8921 5.39135 14.8748 8.29665C14.6926 8.5716 14.5105 8.89695 14.3237 9.30938C14.2782 9.40102 14.2327 9.49267 14.2099 9.58432L14.1871 9.65306C14.0961 9.9051 14.0277 10.1617 13.9594 10.3908C13.9139 10.5283 13.8911 10.6429 13.8684 10.7849C13.8228 11.037 13.8001 11.2936 13.7773 11.5915C13.7773 11.6602 13.7773 11.706 13.7545 11.7518V11.8664L13.9139 13.2732C13.9367 13.4565 14.005 13.6444 14.0733 13.8277L14.0961 13.9194C14.1188 13.9881 14.1188 14.0339 14.1416 14.1026C14.1416 14.1256 14.1416 14.1485 14.1644 14.1714V14.2172L14.1871 14.263C14.2099 14.3776 14.2327 14.4692 14.2554 14.5838C14.6698 16.9804 14.0733 19.565 12.6069 21.6133C11.1406 23.6663 8.91834 25.0502 6.53668 25.4168H6.49114C4.42825 25.3939 2.39268 26.3379 1.13127 28.1617C0.170408 29.5685 -0.198453 31.2503 0.1021 32.9321C0.238715 33.7386 0.539269 34.4993 0.949115 35.1683C1.40905 35.9061 2.00105 36.5522 2.73422 37.0609C2.84807 37.1296 2.96191 37.2213 3.07576 37.29C4.38271 38.0965 5.94012 38.3944 7.47477 38.0965C7.52031 38.0965 7.58861 38.0965 7.63415 38.0736C9.23711 37.7528 10.6351 36.8272 11.5732 35.4708C11.596 35.4249 11.6188 35.3791 11.6643 35.3333C12.0286 34.7559 12.3064 34.1556 12.4658 33.514C12.4885 33.4224 12.5113 33.3537 12.5113 33.262L17.4796 31.2549C17.6754 31.4244 17.8803 31.5848 18.0943 31.736C18.3357 31.901 18.5861 32.0476 18.8366 32.176L18.445 37.2992C17.8256 37.7391 17.2519 38.2661 16.8193 38.9122C15.8584 40.319 15.4895 42.0008 15.7901 43.6826C15.9267 44.4891 16.2273 45.2498 16.6371 45.9188C17.097 46.6566 17.689 47.3027 18.3994 47.8114C18.5133 47.8801 18.6271 47.9489 18.741 48.0176C20.0707 48.847 21.6281 49.122 23.1628 48.847C23.2083 48.847 23.2538 48.8241 23.2994 48.8241C24.9251 48.5033 26.3003 47.5777 27.2384 46.2213C27.284 46.1754 27.3067 46.1296 27.3295 46.0838C28.2448 44.6999 28.5682 43.0639 28.2904 41.428C28.2221 41.011 28.1082 40.6215 27.9488 40.2274C27.9261 40.1128 27.9033 40.0212 27.8805 39.9066C27.4661 37.51 28.0627 34.9484 29.529 32.8771C30.9954 30.8241 33.2176 29.4402 35.5993 29.0736H35.7359C35.827 29.0736 35.8953 29.0507 35.9864 29.0507C36.0774 29.0507 36.1002 29.0278 36.1685 29.0278H36.3734C36.4873 29.0049 36.6011 29.0049 36.715 28.982L38.0219 28.6612L38.0447 28.6383H38.0675C38.0902 28.6154 38.2724 28.5466 38.2724 28.5466C38.5912 28.4092 38.8234 28.2946 39.0056 28.18C39.1194 28.1113 39.2333 28.0196 39.3471 27.9509C39.552 27.8134 39.7615 27.653 39.9664 27.4652L39.9892 27.4423C40.0803 27.3735 40.1486 27.3048 40.2397 27.2131C40.5357 26.9153 40.7907 26.6128 40.9728 26.3379C41.9565 24.9311 42.3253 23.2493 42.0248 21.5675L42.043 21.5583ZM35.317 1.58789C37.9627 1.58789 40.103 3.74624 40.103 6.40408C40.103 9.06192 37.9582 11.2203 35.317 11.2203C32.6757 11.2203 30.5309 9.06192 30.5309 6.40408C30.5309 3.74624 32.6757 1.58789 35.317 1.58789Z" fill="#00FBC7"/>
</svg>
