<?xml version="1.0" encoding="UTF-8"?>
<svg version="1.1" xmlns="http://www.w3.org/2000/svg" width="512" height="512">
<path d="M0 0 C1.50385254 0.01135986 1.50385254 0.01135986 3.03808594 0.02294922 C20.92728092 0.41811525 36.42491915 7.76590324 48.84375 20.6796875 C59.56695871 33.25883618 65.30130381 48.25579923 65.125 64.75 C65.11364014 66.25385254 65.11364014 66.25385254 65.10205078 67.78808594 C64.67288509 87.21644792 55.8934555 102.53525001 42.19914246 115.98468018 C40.556607 117.55202588 38.90813914 119.11317171 37.25463867 120.66894531 C35.37794575 122.45645855 33.50176316 124.24450771 31.62602234 126.03302002 C31.13848996 126.49628394 30.65095757 126.95954785 30.14865148 127.43685007 C26.55155086 130.85550932 22.97750059 134.29706738 19.41584778 137.75262451 C18.89509066 138.25784299 18.37433355 138.76306147 17.83779591 139.2835896 C15.69642736 141.36199244 13.5558439 143.44120155 11.41577375 145.52094126 C5.37208646 151.39269174 -0.69154319 157.23982441 -6.82250977 163.02050781 C-11.71842222 167.63699079 -16.56393464 172.30024827 -21.35727328 177.02322459 C-23.88784983 179.51312495 -26.43620321 181.97388206 -29.04764748 184.37906647 C-40.04147806 193.74552189 -40.04147806 193.74552189 -45.63808823 206.38285828 C-45.19120011 212.31762903 -43.37466086 217.53839179 -41.15944481 223.01979828 C-39.85309785 226.74891645 -39.61482096 230.3889066 -39.5 234.3125 C-39.4071875 237.344375 -39.4071875 237.344375 -39.3125 240.4375 C-34.0325 240.4375 -28.7525 240.4375 -23.3125 240.4375 C-23.209375 242.891875 -23.10625 245.34625 -23 247.875 C-22.46344226 258.90053991 -22.46344226 258.90053991 -16.75 267.9375 C-11.92800753 270.90487998 -7.92830569 271.28111146 -2.3125 270.4375 C4.38799665 267.20447952 9.61024082 260.72631165 14.6875 255.4375 C19.52048806 259.46498053 24.06860004 263.68129413 28.49609375 268.1484375 C29.10767838 268.76143707 29.719263 269.37443665 30.34938049 270.00601196 C32.27697559 271.93914564 34.20103928 273.87574987 36.125 275.8125 C37.44182404 277.13434699 38.75887926 278.45596372 40.07617188 279.77734375 C43.28262373 282.99474299 46.48591629 286.21525681 49.6875 289.4375 C48.73575315 290.55064821 47.78360873 291.6634565 46.83129883 292.77612305 C46.30111649 293.39585495 45.77093414 294.01558685 45.22468567 294.65409851 C42.63987365 297.65292793 39.97841283 300.58222314 37.32421875 303.51953125 C34.20805742 307.1711666 34.35246354 310.23527915 34.40625 314.89453125 C34.81931244 318.62930418 36.19624332 320.67691828 38.6875 323.4375 C46.26497641 329.07203374 55.46140374 327.86086898 64.6875 328.4375 C64.6875 344.2775 64.6875 360.1175 64.6875 376.4375 C59.4075 376.7675 54.1275 377.0975 48.6875 377.4375 C42.13462056 378.93418348 42.13462056 378.93418348 37.1875 383 C34.22012002 387.82199247 33.84388854 391.82169431 34.6875 397.4375 C37.92052048 404.13799665 44.39868835 409.36024082 49.6875 414.4375 C45.66001947 419.27048806 41.44370587 423.81860004 36.9765625 428.24609375 C36.36356293 428.85767838 35.75056335 429.469263 35.11898804 430.09938049 C33.18585436 432.02697559 31.24925013 433.95103928 29.3125 435.875 C27.99065301 437.19182404 26.66903628 438.50887926 25.34765625 439.82617188 C22.13025701 443.03262373 18.90974319 446.23591629 15.6875 449.4375 C14.57435179 448.48575315 13.4615435 447.53360873 12.34887695 446.58129883 C11.72914505 446.05111649 11.10941315 445.52093414 10.47090149 444.97468567 C7.47207207 442.38987365 4.54277686 439.72841283 1.60546875 437.07421875 C-2.0461666 433.95805742 -5.11027915 434.10246354 -9.76953125 434.15625 C-13.50430418 434.56931244 -15.55191828 435.94624332 -18.3125 438.4375 C-23.94703374 446.01497641 -22.73586898 455.21140374 -23.3125 464.4375 C-39.1525 464.4375 -54.9925 464.4375 -71.3125 464.4375 C-71.6425 459.1575 -71.9725 453.8775 -72.3125 448.4375 C-73.80918348 441.88462056 -73.80918348 441.88462056 -77.875 436.9375 C-82.69699247 433.97012002 -86.69669431 433.59388854 -92.3125 434.4375 C-99.01299665 437.67052048 -104.23524082 444.14868835 -109.3125 449.4375 C-110.43838014 448.48020084 -111.5631715 447.52162105 -112.6875 446.5625 C-113.31398438 446.02882813 -113.94046875 445.49515625 -114.5859375 444.9453125 C-115.87086651 443.82317993 -117.10621975 442.64378025 -118.3125 441.4375 C-118.45945312 442.30761719 -118.45945312 442.30761719 -118.609375 443.1953125 C-120.24824992 451.75702112 -124.12646482 457.47749235 -131.3125 462.4375 C-132.16199219 462.73011719 -133.01148438 463.02273438 -133.88671875 463.32421875 C-136.97015241 464.73932116 -137.4020624 465.91205027 -138.6875 469 C-144.5620688 481.60131271 -154.04735302 489.94305556 -167.12109375 494.74609375 C-179.03248864 498.50423438 -194.12517592 498.03116204 -205.3125 492.4375 C-208.47560587 490.62308038 -211.42135644 488.65718795 -214.3125 486.4375 C-215.13621094 485.82519531 -215.95992187 485.21289062 -216.80859375 484.58203125 C-221.9821885 480.15098052 -226.64383771 474.00598686 -228.8125 467.5 C-230.70425549 463.63766587 -232.37449727 463.22253991 -236.1796875 461.59375 C-241.59146636 458.65989186 -245.51206422 453.24645318 -247.3125 447.4375 C-247.97092556 441.02933495 -248.43324074 434.62083833 -245.1875 428.875 C-242.94446724 425.6694224 -242.94446724 425.6694224 -243.9375 422.75 C-244.39125 421.986875 -244.845 421.22375 -245.3125 420.4375 C-246.85452637 417.17203239 -247.50746535 414.33111405 -247.87109375 410.765625 C-247.95544678 409.95512695 -248.0397998 409.14462891 -248.12670898 408.30957031 C-248.18802002 407.69178711 -248.24933105 407.07400391 -248.3125 406.4375 C-248.85007935 407.03059464 -249.38765869 407.62368927 -249.94152832 408.23475647 C-298.09318626 461.1166104 -298.09318626 461.1166104 -330.93765259 469.4367218 C-339.98442616 471.74119851 -348.51390773 475.23857443 -357.1524353 478.74017334 C-361.43559316 480.46680216 -365.7423408 482.13225293 -370.046875 483.8046875 C-375.63403185 485.98425865 -381.20616571 488.19607732 -386.765625 490.4453125 C-409.49538321 499.52737165 -409.49538321 499.52737165 -420.75 494.9375 C-425.84620539 491.92512436 -429.45841667 486.99974999 -431.3125 481.4375 C-433.40218606 468.71013402 -427.73975368 457.54533694 -423.125 446 C-422.27126416 443.82250092 -421.41941241 441.6442623 -420.56933594 439.46533203 C-418.76960774 434.85891914 -416.95815023 430.25732438 -415.14111328 425.65771484 C-412.47901281 418.89438175 -409.89571089 412.10273797 -407.33016014 405.30243492 C-405.70330965 400.99672394 -404.06239246 396.6963449 -402.4234314 392.39523315 C-401.52159882 390.02110507 -400.6247438 387.64507979 -399.73306274 385.26712036 C-398.47891095 381.92943695 -397.20303096 378.60083228 -395.921875 375.2734375 C-395.37743996 373.80158745 -395.37743996 373.80158745 -394.82200623 372.30000305 C-392.28389688 365.79337405 -389.21833377 361.36544354 -384.3125 356.4375 C-383.28156239 355.38536373 -382.25089616 354.33296151 -381.22042847 353.28036499 C-377.38231391 349.37978146 -373.50582486 345.51819859 -369.62890625 341.65625 C-368.20379587 340.23300756 -366.77890824 338.80954206 -365.35423279 337.38586426 C-361.62632991 333.66175698 -357.89543244 329.94066416 -354.16387939 326.22021484 C-350.3476557 322.41426924 -346.53430483 318.60544755 -342.72070312 314.796875 C-335.25409322 307.34095019 -327.784313 299.88821037 -320.3125 292.4375 C-320.65834641 291.35152023 -321.00419281 290.26554047 -321.36051941 289.14665222 C-321.81755063 287.70092027 -322.27443687 286.25514248 -322.73120117 284.80932617 C-322.95877861 284.09604912 -323.18635605 283.38277206 -323.42082977 282.64788055 C-326.86252919 271.72395362 -327.61667755 261.20648249 -327.51831055 249.81762695 C-327.49988078 247.61072355 -327.49780288 245.40423861 -327.49804688 243.19726562 C-327.47616916 236.84323746 -327.25676274 230.73277083 -326.3125 224.4375 C-327.12523376 224.44638245 -327.93796753 224.45526489 -328.77532959 224.4644165 C-336.48281784 224.54499289 -344.19009817 224.60568097 -351.89789963 224.64474869 C-355.85936388 224.66550994 -359.82047639 224.69361381 -363.78173828 224.73925781 C-367.61378624 224.78313014 -371.44549864 224.80672298 -375.27777863 224.81700897 C-376.73044355 224.82432697 -378.1830928 224.83861443 -379.63561249 224.86042023 C-395.63359326 225.09075529 -407.2736967 221.06253304 -419.0625 210.125 C-429.05541038 199.56645319 -431.82689781 188.01922077 -431.73217773 173.90722656 C-431.31809181 159.6711922 -425.40510575 148.7161965 -415.12890625 138.96875 C-409.96420453 134.61485092 -404.88437586 131.94355488 -398.3125 130.4375 C-398.47258545 129.72899902 -398.6326709 129.02049805 -398.79760742 128.29052734 C-402.78738666 106.18310196 -397.96462913 84.03910327 -385.37890625 65.60546875 C-383.7467077 63.48887579 -382.06173394 61.45744872 -380.3125 59.4375 C-379.71566406 58.64472656 -379.11882812 57.85195312 -378.50390625 57.03515625 C-370.30385931 47.31495801 -359.05237258 40.89205685 -347.3125 36.4375 C-346.20132813 36.004375 -345.09015625 35.57125 -343.9453125 35.125 C-323.94815442 28.59531573 -301.57522148 31.18987672 -282.9375 40.25 C-276.86169129 43.37449545 -271.37616007 46.81249975 -266.3125 51.4375 C-265.49394531 52.17613281 -264.67539062 52.91476563 -263.83203125 53.67578125 C-257.51355652 59.66925123 -252.86517903 66.03621733 -248.3125 73.4375 C-247.54164063 73.27765625 -246.77078125 73.1178125 -245.9765625 72.953125 C-226.89575102 70.26797882 -209.46560909 72.78616751 -193.3125 83.4375 C-188.58003406 87.03229755 -183.89545454 90.69075248 -180.89355469 95.8996582 C-177.71166708 101.33479493 -177.71166708 101.33479493 -172.49414062 104.56933594 C-169.17624641 105.21306063 -165.93049879 105.59689076 -162.5625 105.875 C-160.31702373 106.11743884 -158.07220843 106.36608427 -155.828125 106.62109375 C-154.84102539 106.70931396 -153.85392578 106.79753418 -152.83691406 106.88842773 C-149.64632363 107.38549326 -146.6989746 108.10936451 -143.59222412 108.97181702 C-142.60308895 109.2453 -141.61395378 109.51878298 -140.59484482 109.80055332 C-139.46508413 110.11584193 -139.46508413 110.11584193 -138.3125 110.4375 C-137.83211336 109.95434798 -137.35172672 109.47119596 -136.85678291 108.97340298 C-125.13697272 97.18717711 -113.40874995 85.40939378 -101.67123604 73.64079952 C-95.9951336 67.94926521 -90.32185604 62.25496887 -84.65527344 56.55395508 C-79.71303716 51.58170336 -74.76544989 46.61484818 -69.81151569 41.6542502 C-67.19157794 39.03042068 -64.57429371 36.40406789 -61.96341324 33.77122307 C-59.04002993 30.82344953 -56.10475377 27.88779154 -53.16845703 24.95288086 C-52.31608963 24.08972763 -51.46372223 23.2265744 -50.58552551 22.33726501 C-36.52772821 8.35076875 -20.10071998 -0.2148533 0 0 Z M-40.44140625 37.49609375 C-41.05886719 38.13675781 -41.67632812 38.77742188 -42.3125 39.4375 C-40.65645113 43.73255763 -37.41701694 46.59903042 -34.21044922 49.76660156 C-33.58592865 50.39141418 -32.96140808 51.01622681 -32.31796265 51.65997314 C-30.2557435 53.72080069 -28.1865341 55.77445653 -26.1171875 57.828125 C-24.68471453 59.25686725 -23.25268293 60.68605215 -21.82107544 62.11566162 C-18.05418516 65.87492017 -14.28132707 69.62813357 -10.50720215 73.38012695 C-6.65613269 77.21072817 -2.81072729 81.04700595 1.03515625 84.8828125 C8.58039934 92.40661378 16.13195811 99.92404202 23.6875 107.4375 C32.00531937 103.56447734 39.80461613 94.72302385 43.6875 86.4375 C44.07679688 85.61507812 44.46609375 84.79265625 44.8671875 83.9453125 C49.07967455 73.45767234 49.70680813 60.15480219 46.0625 49.375 C45.32436098 47.70447485 44.53239038 46.05665525 43.6875 44.4375 C43.24019531 43.56738281 42.79289062 42.69726562 42.33203125 41.80078125 C35.55146232 29.6393855 25.51967639 22.58352963 12.3984375 18.19140625 C-9.23566721 12.17500537 -25.87306622 22.61731725 -40.44140625 37.49609375 Z M-364.84375 67.88671875 C-374.7659483 78.42078594 -382.42596774 91.7499379 -382.4453125 106.5625 C-382.44660156 107.51640625 -382.44789063 108.4703125 -382.44921875 109.453125 C-382.44341797 110.93039063 -382.44341797 110.93039063 -382.4375 112.4375 C-382.44136719 113.42234375 -382.44523437 114.4071875 -382.44921875 115.421875 C-382.44728516 116.85273438 -382.44728516 116.85273438 -382.4453125 118.3125 C-382.44418457 119.17617187 -382.44305664 120.03984375 -382.44189453 120.9296875 C-382.30838354 123.5172817 -381.8819917 125.9129608 -381.3125 128.4375 C-379.86230469 128.67533203 -379.86230469 128.67533203 -378.3828125 128.91796875 C-363.47159288 131.51807067 -352.08275618 137.08910513 -342.9375 149.75 C-337.86004587 158.00625686 -335.87559015 166.86496747 -335.3125 176.4375 C-340.9225 176.4375 -346.5325 176.4375 -352.3125 176.4375 C-352.3125 174.1275 -352.3125 171.8175 -352.3125 169.4375 C-354.64923816 160.20051151 -359.43554775 154.02841743 -367.4375 149.0625 C-375.30516617 144.47915553 -384.3074717 144.07570397 -393.171875 146.0859375 C-402.11481976 149.33539258 -408.02568973 154.97148582 -412.40234375 163.32421875 C-415.74896241 171.09469384 -415.59996366 181.00772265 -412.6875 188.875 C-408.78996471 197.14372938 -402.81733925 202.9201337 -394.3125 206.4375 C-383.93720947 209.3453053 -373.04433084 208.71929837 -362.37841797 208.69628906 C-360.26334513 208.69900244 -358.14827324 208.70256532 -356.03320312 208.70690918 C-350.31440058 208.71599304 -344.59567056 208.71250576 -338.87686682 208.70615101 C-332.88064733 208.70107159 -326.88443386 208.70578773 -320.88821411 208.70892334 C-310.82276296 208.71255676 -300.75734121 208.70777966 -290.69189453 208.69824219 C-279.06580212 208.68735294 -267.43977983 208.69088917 -255.81368911 208.701895 C-245.81680034 208.71097858 -235.81993265 208.71224808 -225.82304108 208.70701766 C-219.85873969 208.70390462 -213.89447123 208.70347044 -207.93017197 208.71009064 C-202.32406591 208.71587924 -196.71805008 208.71183944 -191.11195374 208.70030212 C-189.05810318 208.6976639 -187.00424499 208.69840628 -184.95039749 208.70282745 C-182.14048527 208.7083173 -179.33085969 208.70140726 -176.52096558 208.69146729 C-175.71423963 208.69592873 -174.90751369 208.70039017 -174.07634151 208.70498681 C-165.1071736 208.64372207 -157.239289 207.39973352 -150.68359375 200.796875 C-145.17074413 194.6862465 -143.82664533 189.65041157 -144.0078125 181.4375 C-144.77306938 173.90266305 -148.6115684 169.67288884 -154.21484375 164.8828125 C-160.42156105 160.60630337 -167.00740427 160.58848161 -174.3125 161.4375 C-181.15918447 163.91914615 -186.30379215 169.693999 -189.6875 176 C-190.56087535 178.98677174 -190.56087535 178.98677174 -190.3125 184.4375 C-195.9225 184.4375 -201.5325 184.4375 -207.3125 184.4375 C-205.94362196 172.73981492 -203.29745732 162.60200464 -194.3125 154.4375 C-191.97886756 152.79114367 -189.62073832 151.25949806 -187.16796875 149.796875 C-185.00857327 148.48970281 -185.00857327 148.48970281 -184.3125 145.4375 C-183.2609224 128.62949745 -185.89656239 116.60782222 -196.96875 103.47265625 C-205.53917158 94.23519714 -216.36446186 89.50162414 -228.82421875 89.03491211 C-243.92555193 88.81182423 -254.96462234 93.45350082 -266.0625 103.75 C-273.15124781 111.27343518 -276.34541068 119.39499134 -278.3125 129.4375 C-277.64863281 129.74042969 -276.98476563 130.04335937 -276.30078125 130.35546875 C-267.44703702 134.55615032 -260.9521244 140.23438266 -257.0625 149.375 C-256.17445177 153.00119696 -255.7755656 156.73297516 -255.3125 160.4375 C-260.9225 160.4375 -266.5325 160.4375 -272.3125 160.4375 C-272.6425 158.1275 -272.9725 155.8175 -273.3125 153.4375 C-275.37159802 149.66376273 -278.32532102 147.03382943 -282.3125 145.4375 C-287.22193384 144.74078167 -291.19804196 144.90090909 -295.6875 147.0625 C-298.5726083 149.67283608 -300.48756541 151.99820019 -302.3125 155.4375 C-302.3125 157.0875 -302.3125 158.7375 -302.3125 160.4375 C-307.9225 160.4375 -313.5325 160.4375 -319.3125 160.4375 C-317.3715006 147.49750403 -313.87537494 140.40810869 -303.25390625 132.55078125 C-301.3125 131.4375 -301.3125 131.4375 -298.20703125 130.7421875 C-297.25183594 130.31164062 -296.29664063 129.88109375 -295.3125 129.4375 C-294.36424293 126.89102157 -293.85910972 124.88714562 -293.4375 122.25 C-289.95253464 105.35911352 -280.59792582 92.13898372 -266.18359375 82.6171875 C-265.56613281 82.22789063 -264.94867188 81.83859375 -264.3125 81.4375 C-271.55714388 66.94821223 -284.85458691 56.84088607 -299.96484375 51.5 C-323.88307723 44.36227753 -347.13982334 50.75653045 -364.84375 67.88671875 Z M-58.6953125 55.625 C-60.05269531 57.0171875 -60.05269531 57.0171875 -61.4375 58.4375 C-62.34757812 59.365625 -63.25765625 60.29375 -64.1953125 61.25 C-64.89398438 61.971875 -65.59265625 62.69375 -66.3125 63.4375 C-64.65645113 67.73255763 -61.41701694 70.59903042 -58.21044922 73.76660156 C-57.27366837 74.7038205 -57.27366837 74.7038205 -56.31796265 75.65997314 C-54.2557435 77.72080069 -52.1865341 79.77445653 -50.1171875 81.828125 C-48.68471453 83.25686725 -47.25268293 84.68605215 -45.82107544 86.11566162 C-42.05418516 89.87492017 -38.28132707 93.62813357 -34.50720215 97.38012695 C-30.65613269 101.21072817 -26.81072729 105.04700595 -22.96484375 108.8828125 C-15.41960066 116.40661378 -7.86804189 123.92404202 -0.3125 131.4375 C3.09809403 129.83214713 5.30542484 128.03231099 7.9375 125.3125 C8.99710938 124.22582031 8.99710938 124.22582031 10.078125 123.1171875 C10.60921875 122.56289062 11.1403125 122.00859375 11.6875 121.4375 C10.03020805 117.15295697 6.81007016 114.27930194 3.6171875 111.10839844 C2.99587952 110.48358582 2.37457153 109.85877319 1.73443604 109.21502686 C-0.31787694 107.15392033 -2.3774084 105.1002046 -4.4375 103.046875 C-5.86503916 101.61798885 -7.29228129 100.18880591 -8.71923828 98.75933838 C-11.70867111 95.76695779 -14.7016901 92.77822313 -17.69726562 89.79199219 C-21.54448948 85.95618321 -25.38263868 82.111439 -29.21817017 78.26394272 C-32.16212911 75.31277344 -35.11081431 72.36636374 -38.06097412 69.42139435 C-39.47868866 68.00501753 -40.89490924 66.58714377 -42.30963135 65.16777802 C-44.28236399 63.18999153 -46.26134983 61.21868771 -48.2421875 59.24902344 C-48.83030212 58.65686035 -49.41841675 58.06469727 -50.02435303 57.45458984 C-54.0788862 52.91395826 -54.0788862 52.91395826 -58.6953125 55.625 Z M-82.07156372 78.95605469 C-83.13079544 80.02194824 -83.13079544 80.02194824 -84.21142578 81.109375 C-85.0121048 81.91020508 -85.81278381 82.71103516 -86.63772583 83.53613281 C-87.50235443 84.41108398 -88.36698303 85.28603516 -89.2578125 86.1875 C-90.1428244 87.0753418 -91.0278363 87.96318359 -91.93966675 88.87792969 C-94.29416258 91.24174682 -96.64423408 93.60979654 -98.99230957 95.97998047 C-101.38839152 98.3965037 -103.79012961 100.80739058 -106.19140625 103.21875 C-110.90368948 107.95313465 -115.61022387 112.69317712 -120.3125 117.4375 C-117.40791803 120.50996746 -114.08150624 122.42027027 -110.4375 124.5 C-104.38660978 128.01687672 -98.83978934 131.88858989 -93.43798828 136.33813477 C-90.30408113 138.95085387 -90.30408113 138.95085387 -86.3125 139.4375 C-84.56857753 138.13092313 -84.56857753 138.13092313 -82.85083008 136.31640625 C-82.1703511 135.63570068 -81.48987213 134.95499512 -80.78877258 134.25366211 C-80.06054794 133.50995361 -79.3323233 132.76624512 -78.58203125 132 C-77.45640022 130.86800171 -77.45640022 130.86800171 -76.30802917 129.71313477 C-73.90657604 127.29485329 -71.51574651 124.86636229 -69.125 122.4375 C-67.50133881 120.79879742 -65.87699833 119.1607676 -64.25195312 117.5234375 C-60.26421262 113.50257255 -56.28515181 109.47327035 -52.3125 105.4375 C-54.12642266 101.52430828 -56.65285462 98.80735383 -59.6875 95.796875 C-60.21263184 95.26982971 -60.73776367 94.74278442 -61.27880859 94.19976807 C-62.38588883 93.09133072 -63.4954833 91.98539954 -64.60742188 90.88183594 C-66.31356975 89.18643699 -68.00874047 87.4805839 -69.703125 85.7734375 C-70.78060892 84.69727442 -71.85871267 83.62173149 -72.9375 82.546875 C-73.44587402 82.03445251 -73.95424805 81.52203003 -74.47802734 80.99407959 C-77.95411366 77.10728432 -77.95411366 77.10728432 -82.07156372 78.95605469 Z M-41.88174438 118.76623535 C-42.4990744 119.38800659 -43.11640442 120.00977783 -43.75244141 120.65039062 C-44.45301666 121.35111694 -45.15359192 122.05184326 -45.87539673 122.77380371 C-46.63065643 123.53938599 -47.38591614 124.30496826 -48.1640625 125.09375 C-48.93809418 125.87061157 -49.71212585 126.64747314 -50.50961304 127.44787598 C-52.9902884 129.93978149 -55.46393507 132.43853814 -57.9375 134.9375 C-59.61412627 136.62415239 -61.29120376 138.31035637 -62.96875 139.99609375 C-67.08859088 144.1380326 -71.20267592 148.28562314 -75.3125 152.4375 C-74.70740601 153.23917099 -74.70740601 153.23917099 -74.09008789 154.05703735 C-73.55633545 154.76605194 -73.02258301 155.47506653 -72.47265625 156.20556641 C-71.94551025 156.90501373 -71.41836426 157.60446106 -70.87524414 158.32510376 C-68.58505348 161.42080574 -66.43710808 164.60178275 -64.3125 167.8125 C-63.88533691 168.45517822 -63.45817383 169.09785645 -63.01806641 169.76000977 C-59.62625588 174.89389008 -56.39527619 180.11156552 -53.3125 185.4375 C-48.00181195 181.00333328 -43.06413383 176.32233314 -38.19140625 171.4140625 C-37.07426491 170.29479874 -37.07426491 170.29479874 -35.93455505 169.15292358 C-33.57899173 166.79180611 -31.22694784 164.42721838 -28.875 162.0625 C-27.26911237 160.45159144 -25.66299484 158.84091204 -24.05664062 157.23046875 C-20.13926487 153.30212487 -16.22476513 149.37093326 -12.3125 145.4375 C-14.12642266 141.52430828 -16.65285462 138.80735383 -19.6875 135.796875 C-20.21263184 135.26982971 -20.73776367 134.74278442 -21.27880859 134.19976807 C-22.38588883 133.09133072 -23.4954833 131.98539954 -24.60742188 130.88183594 C-26.31356975 129.18643699 -28.00874047 127.4805839 -29.703125 125.7734375 C-30.78060892 124.69727442 -31.85871267 123.62173149 -32.9375 122.546875 C-33.44587402 122.03445251 -33.95424805 121.52203003 -34.47802734 120.99407959 C-37.83232283 117.19086399 -37.83232283 117.19086399 -41.88174438 118.76623535 Z M-168.3125 122.4375 C-167.9825 129.6975 -167.6525 136.9575 -167.3125 144.4375 C-165.37375 144.664375 -163.435 144.89125 -161.4375 145.125 C-151.39043507 146.6958766 -143.16709818 150.83272048 -136.3125 158.4375 C-128.38761473 169.37384168 -127.1387 180.30955271 -128.3125 193.4375 C-130.53825956 204.69957684 -137.3000082 212.47958203 -146.4921875 218.9296875 C-154.16011354 223.02916042 -161.30082472 223.8955666 -169.91015625 223.94921875 C-171.52246376 223.97614555 -171.52246376 223.97614555 -173.16734314 224.00361633 C-176.5698566 224.05740532 -179.97223232 224.09151436 -183.375 224.125 C-185.6946805 224.15820076 -188.01434289 224.19269294 -190.33398438 224.22851562 C-195.99336596 224.31311347 -201.65276609 224.38159511 -207.3125 224.4375 C-207.40001413 228.31235635 -207.45306435 232.18695643 -207.5 236.0625 C-207.53770508 237.70412109 -207.53770508 237.70412109 -207.57617188 239.37890625 C-207.75692853 247.39081563 -207.75692853 247.39081563 -204.3125 254.4375 C-200.28981062 256.5267673 -196.84498952 256.68826031 -192.35424805 256.69287109 C-191.67386475 256.69649155 -190.99348145 256.700112 -190.29248047 256.70384216 C-188.82148767 256.71071156 -187.35046951 256.71324622 -185.87946129 256.71189499 C-183.54534728 256.71092551 -181.21168847 256.72392217 -178.87763977 256.74087524 C-172.24373906 256.78701444 -165.60988584 256.81173856 -158.97583008 256.81835938 C-154.91092343 256.82339325 -150.84649282 256.84773734 -146.78174782 256.88368607 C-145.23933593 256.89344062 -143.6968582 256.89583986 -142.15442467 256.89051437 C-132.93540973 256.86018068 -125.58889774 256.88431508 -118.2890625 263.18359375 C-117.84304688 263.74175781 -117.39703125 264.29992187 -116.9375 264.875 C-116.47601563 265.43058594 -116.01453125 265.98617187 -115.5390625 266.55859375 C-111.30803894 273.03987506 -111.64217352 279.94511669 -112.3125 287.4375 C-113.94461433 293.64344371 -118.00645906 297.97368117 -123.3125 301.4375 C-127.73409574 303.68074382 -131.9181652 303.72450091 -136.77124023 303.70874023 C-138.03071976 303.71658035 -138.03071976 303.71658035 -139.31564331 303.72457886 C-141.13367793 303.73479772 -142.95174162 303.74059557 -144.769804 303.74246025 C-147.64941381 303.74612984 -150.52868106 303.7628724 -153.40821838 303.78321838 C-161.59345122 303.83857656 -169.77873404 303.86931871 -177.96411133 303.89379883 C-182.97556264 303.90968855 -187.98676982 303.93992066 -192.99809456 303.97856331 C-194.90500354 303.99019887 -196.8119562 303.99614353 -198.71890068 303.99624443 C-201.38764769 303.99643686 -204.05572279 304.01473009 -206.72436523 304.03686523 C-207.50845261 304.03228806 -208.29253998 304.02771088 -209.10038757 304.022995 C-213.87776626 304.08587079 -217.16627738 304.81102714 -221.3125 307.4375 C-222.73291821 310.27833641 -222.62702272 312.29227278 -222.3125 315.4375 C-220.08043569 318.28530619 -218.76257001 319.28747666 -215.3125 320.4375 C-213.63361125 320.53992931 -211.95141063 320.59228231 -210.26953125 320.61328125 C-209.27759766 320.63712891 -208.28566406 320.66097656 -207.26367188 320.68554688 C-205.19095665 320.72811041 -203.11798031 320.7595785 -201.04492188 320.77929688 C-193.54982557 320.98735959 -188.03984875 322.22104268 -182.2890625 327.18359375 C-181.84304688 327.74175781 -181.39703125 328.29992187 -180.9375 328.875 C-180.47601563 329.43058594 -180.01453125 329.98617187 -179.5390625 330.55859375 C-177.07140509 334.33866768 -176.0662607 337.8299636 -175.99365234 342.31958008 C-175.97378265 343.26017776 -175.95391296 344.20077545 -175.93344116 345.1698761 C-175.92188995 346.1721373 -175.91033875 347.1743985 -175.8984375 348.20703125 C-175.87907135 349.24317062 -175.8597052 350.27931 -175.8397522 351.34684753 C-175.78009643 354.64781529 -175.73362669 357.94881819 -175.6875 361.25 C-175.64930737 363.49155145 -175.61025489 365.73308842 -175.5703125 367.97460938 C-175.47279211 373.46216317 -175.3931113 378.94956759 -175.3125 384.4375 C-163.4325 384.4375 -151.5525 384.4375 -139.3125 384.4375 C-137.86875 381.735625 -136.425 379.03375 -134.9375 376.25 C-129.07123592 365.56777208 -122.11310831 356.34381885 -113.84375 347.39453125 C-113.32865875 346.83685059 -112.8135675 346.27916992 -112.28286743 345.70458984 C-108.47478981 341.61500677 -104.56499057 337.64166797 -100.5859375 333.71875 C-100.02029083 333.1608931 -99.45464417 332.60303619 -98.87185669 332.02827454 C-96.56743321 329.76018858 -94.26029194 327.49505811 -91.94335938 325.23974609 C-71.45042483 305.25855992 -56.44768243 282.88575377 -56.02001953 253.34619141 C-55.83189749 216.02920257 -67.6203406 185.75938593 -93.3125 158.4375 C-93.8384375 157.84710938 -94.364375 157.25671875 -94.90625 156.6484375 C-111.37088342 138.9237556 -137.439106 125.97722874 -161.3125 122.4375 C-163.6225 122.4375 -165.9325 122.4375 -168.3125 122.4375 Z M-308.3125 224.4375 C-311.89504755 242.35023775 -312.62018738 262.02414664 -306.3125 279.4375 C-305.95027344 280.48164063 -305.58804688 281.52578125 -305.21484375 282.6015625 C-297.09719267 303.90007755 -280.74968797 319.30828576 -264.78271484 334.85083008 C-249.28247788 349.97095734 -237.85244782 365.46559393 -227.3125 384.4375 C-215.4325 384.4375 -203.5525 384.4375 -191.3125 384.4375 C-191.24349044 378.85028146 -191.18379878 373.26455183 -191.14770508 367.67724609 C-191.13265309 365.77810647 -191.11220684 363.87900141 -191.08618164 361.97998047 C-191.04964008 359.24437919 -191.03273762 356.509239 -191.01953125 353.7734375 C-191.00404739 352.92945404 -190.98856354 352.08547058 -190.97261047 351.21591187 C-190.97120569 346.25389705 -191.35301786 342.62966343 -194.3125 338.4375 C-197.71005039 336.48268721 -200.67688342 336.19011616 -204.55078125 336.1640625 C-205.53626953 336.1434375 -206.52175781 336.1228125 -207.53710938 336.1015625 C-209.58390178 336.07567012 -211.63080502 336.05735193 -213.67773438 336.046875 C-221.14979469 335.8716345 -226.60307348 334.63849161 -232.3359375 329.69140625 C-232.78195313 329.13324219 -233.22796875 328.57507813 -233.6875 328 C-234.37972656 327.16662109 -234.37972656 327.16662109 -235.0859375 326.31640625 C-239.31696106 319.83512494 -238.98282648 312.92988331 -238.3125 305.4375 C-236.68038567 299.23155629 -232.61854094 294.90131883 -227.3125 291.4375 C-222.89090426 289.19425618 -218.7068348 289.15049909 -213.85375977 289.16625977 C-213.01410675 289.16103302 -212.17445374 289.15580627 -211.30935669 289.15042114 C-209.49132207 289.14020228 -207.67325838 289.13440443 -205.855196 289.13253975 C-202.97558619 289.12887016 -200.09631894 289.1121276 -197.21678162 289.09178162 C-189.03154878 289.03642344 -180.84626596 289.00568129 -172.66088867 288.98120117 C-167.64943736 288.96531145 -162.63823018 288.93507934 -157.62690544 288.89643669 C-155.71999646 288.88480113 -153.8130438 288.87885647 -151.90609932 288.87875557 C-149.23735231 288.87856314 -146.56927721 288.86026991 -143.90063477 288.83813477 C-143.11654739 288.84271194 -142.33246002 288.84728912 -141.52461243 288.852005 C-136.74723374 288.78912921 -133.45872262 288.06397286 -129.3125 285.4375 C-127.89208179 282.59666359 -127.99797728 280.58272722 -128.3125 277.4375 C-130.54456431 274.58969381 -131.86242999 273.58752334 -135.3125 272.4375 C-137.55458881 272.33944714 -139.79947829 272.30200016 -142.04370117 272.2956543 C-142.72379242 272.29217987 -143.40388367 272.28870544 -144.10458374 272.28512573 C-145.58107373 272.27777763 -147.0575747 272.27242721 -148.5340786 272.26883507 C-150.87635048 272.26165474 -153.21841466 272.24597494 -155.56062317 272.22749329 C-162.2201547 272.17510926 -168.87957367 272.1270931 -175.53930664 272.11157227 C-179.61490554 272.10145191 -183.68998292 272.07202319 -187.76537514 272.03025246 C-189.3133581 272.01799232 -190.86141491 272.01281204 -192.40944481 272.01505089 C-201.64081926 272.02511314 -209.02744966 271.99815155 -216.3359375 265.69140625 C-216.78195313 265.13324219 -217.22796875 264.57507813 -217.6875 264 C-218.37972656 263.16662109 -218.37972656 263.16662109 -219.0859375 262.31640625 C-226.4516248 251.03329928 -222.87227162 238.0845797 -223.3125 224.4375 C-251.3625 224.4375 -279.4125 224.4375 -308.3125 224.4375 Z M-40.3125 264.4375 C-40.55033203 265.92636719 -40.55033203 265.92636719 -40.79296875 267.4453125 C-42.22310957 275.92123148 -44.22697182 283.72040933 -47.32421875 291.7421875 C-48.42725155 294.27199452 -48.42725155 294.27199452 -48.3125 296.4375 C-47.29671875 296.52386719 -46.2809375 296.61023438 -45.234375 296.69921875 C-30.16570954 298.16216029 -16.71784164 302.90725656 -6.3125 314.4375 C-5.84328125 314.90285156 -5.3740625 315.36820312 -4.890625 315.84765625 C6.25707529 327.54124908 8.27836974 342.6532374 8 358.03125 C7.7379785 364.38090441 6.47543574 369.71579803 3.6875 375.4375 C3.21699219 376.41074219 2.74648438 377.38398438 2.26171875 378.38671875 C-5.33288792 393.08532442 -17.07056209 401.17091327 -32.484375 406.54296875 C-47.17528745 409.97584523 -63.31308596 408.32633018 -76.34375 400.65234375 C-79.45546542 398.54657081 -82.34890225 396.4423948 -84.953125 393.7265625 C-86.24214329 392.20813614 -86.24214329 392.20813614 -88.3125 392.4375 C-88.58449219 391.86 -88.85648437 391.2825 -89.13671875 390.6875 C-90.31070543 388.44093412 -91.64811067 386.49501337 -93.125 384.4375 C-97.8927218 377.38500198 -100.68841995 369.4886547 -103.3125 361.4375 C-111.59636369 369.45930825 -122.02015109 381.03454758 -123.65234375 392.91015625 C-123.43548721 395.59670949 -123.43548721 395.59670949 -121.8203125 398.32421875 C-120.07004866 401.93810548 -120.10704307 404.26738172 -120.1875 408.25 C-119.93478891 414.06235517 -118.90925181 416.71813511 -114.75 420.8125 C-113.30047776 422.05623983 -111.83048644 423.27831035 -110.3125 424.4375 C-108.19377234 423.39757404 -106.1232353 422.32830883 -104.078125 421.1484375 C-95.24771713 416.4589973 -85.98182875 415.8830601 -76.3125 418.13671875 C-66.68756776 421.61401897 -61.76889146 427.21823256 -57.46875 436.37890625 C-55.90961411 440.50324206 -55.45894821 444.04405357 -55.3125 448.4375 C-50.0325 448.4375 -44.7525 448.4375 -39.3125 448.4375 C-39.10625 446.66375 -38.9 444.89 -38.6875 443.0625 C-37.28385756 434.79660563 -34.04763461 428.29591493 -27.4375 423 C-18.8011357 417.2909427 -9.5135549 415.73482393 0.6875 417.4375 C4.11795496 418.735205 7.09838589 420.23289484 10.234375 422.125 C12.81162495 423.75200253 12.81162495 423.75200253 16.6875 423.4375 C18.91091381 421.69834364 18.91091381 421.69834364 20.9375 419.4375 C21.64390625 418.695 22.3503125 417.9525 23.078125 417.1875 C23.60921875 416.61 24.1403125 416.0325 24.6875 415.4375 C23.64757404 413.31877234 22.57830883 411.2482353 21.3984375 409.203125 C16.7089973 400.37271713 16.1330601 391.10682875 18.38671875 381.4375 C21.86401897 371.81256776 27.46823256 366.89389146 36.62890625 362.59375 C40.75324206 361.03461411 44.29405357 360.58394821 48.6875 360.4375 C48.6875 355.1575 48.6875 349.8775 48.6875 344.4375 C46.91375 344.23125 45.14 344.025 43.3125 343.8125 C35.04660563 342.40885756 28.54591493 339.17263461 23.25 332.5625 C17.5409427 323.9261357 15.98482393 314.6385549 17.6875 304.4375 C18.985205 301.00704504 20.48289484 298.02661411 22.375 294.890625 C24.00200253 292.31337505 24.00200253 292.31337505 23.6875 288.4375 C21.94834364 286.21408619 21.94834364 286.21408619 19.6875 284.1875 C18.945 283.48109375 18.2025 282.7746875 17.4375 282.046875 C16.86 281.51578125 16.2825 280.9846875 15.6875 280.4375 C13.56877234 281.47742596 11.4982353 282.54669117 9.453125 283.7265625 C0.62271713 288.4160027 -8.64317125 288.9919399 -18.3125 286.73828125 C-29.69748404 282.62510866 -34.20699825 274.89679538 -39.3125 264.4375 C-39.6425 264.4375 -39.9725 264.4375 -40.3125 264.4375 Z M-315.18113708 312.18171692 C-315.72923538 312.73341049 -316.27733368 313.28510406 -316.84204102 313.85351562 C-317.41764771 314.42897629 -317.99325439 315.00443695 -318.58630371 315.59733582 C-320.49871604 317.51044787 -322.40755667 319.42708364 -324.31640625 321.34375 C-325.63755411 322.66676183 -326.95892212 323.98955384 -328.28050232 325.31213379 C-331.76631801 328.80177632 -335.24912095 332.29441095 -338.73132324 335.78765869 C-342.28197215 339.34851817 -345.83543685 342.90656518 -349.38867188 346.46484375 C-356.3660537 353.45296582 -363.34025876 360.44424928 -370.3125 367.4375 C-368.49174329 371.37462187 -365.93600502 374.07086039 -362.8671875 377.078125 C-362.33731232 377.60517029 -361.80743713 378.13221558 -361.26150513 378.67523193 C-359.57482175 380.35075675 -357.88130436 382.01917722 -356.1875 383.6875 C-355.03990612 384.82505851 -353.89276539 385.96307436 -352.74609375 387.1015625 C-349.94011863 389.88553465 -347.12799536 392.6631576 -344.3125 395.4375 C-340.41854884 393.85350411 -337.80097765 391.19553057 -334.90136719 388.25341797 C-334.37409027 387.72643311 -333.84681335 387.19944824 -333.30355835 386.65649414 C-331.56737928 384.91892524 -329.838386 383.17438686 -328.109375 381.4296875 C-326.90483563 380.22141678 -325.69985303 379.01358778 -324.4944458 377.80618286 C-321.32701894 374.63112923 -318.16564487 371.45011478 -315.00549316 368.26782227 C-311.77812911 365.01997924 -308.54507772 361.77780867 -305.3125 358.53515625 C-298.97358697 352.17481018 -292.64105376 345.80815247 -286.3125 339.4375 C-287.64178323 336.68663782 -288.88428951 334.61916337 -291.03515625 332.44140625 C-291.83711426 331.61213623 -291.83711426 331.61213623 -292.65527344 330.76611328 C-293.2227832 330.1832959 -293.79029297 329.60047852 -294.375 329 C-299.82895274 323.29262207 -304.38683936 317.3895139 -308.703125 310.7890625 C-309.23421875 310.01304687 -309.7653125 309.23703125 -310.3125 308.4375 C-312.4398905 308.4375 -313.75749383 310.76200495 -315.18113708 312.18171692 Z M-62.9375 317.07421875 C-63.39125 317.75097656 -63.845 318.42773438 -64.3125 319.125 C-68.23208942 324.54196066 -72.73882237 329.28437554 -77.33789062 334.11987305 C-78.4931237 335.33845247 -79.64233981 336.562772 -80.78466797 337.79345703 C-82.07557589 339.18255481 -83.38889758 340.55077254 -84.70703125 341.9140625 C-86.84093705 345.26808475 -86.91829486 348.2076283 -86.8125 352.0625 C-86.79968994 352.76963135 -86.78687988 353.4767627 -86.77368164 354.20532227 C-86.32994539 365.80171743 -81.56538529 374.46829948 -73.24609375 382.41015625 C-64.25779266 389.98348329 -54.7726225 392.33577154 -43.18359375 391.81640625 C-31.54927586 390.67762841 -22.93844156 385.01571408 -15.5 376.1875 C-8.40571935 366.37099538 -7.15893472 356.22289374 -8.3125 344.4375 C-10.57007909 333.65722586 -17.05706148 325.32640935 -25.88671875 318.9453125 C-34.92721754 313.32593644 -54.26834748 308.3425483 -62.9375 317.07421875 Z M-278.11517334 354.99133301 C-278.88984955 355.77679504 -278.88984955 355.77679504 -279.68017578 356.578125 C-280.22666779 357.12432495 -280.77315979 357.6705249 -281.33621216 358.23327637 C-283.14819058 360.04665233 -284.95297542 361.86701843 -286.7578125 363.6875 C-288.01005223 364.94346835 -289.26273316 366.19899696 -290.51583862 367.45410156 C-293.81809049 370.76400178 -297.11429342 374.07986353 -300.40930176 377.39697266 C-303.77055977 380.77866323 -307.13746327 384.15472238 -310.50390625 387.53125 C-317.11233056 394.16114541 -323.71438273 400.797348 -330.3125 407.4375 C-328.49174329 411.37462187 -325.93600502 414.07086039 -322.8671875 417.078125 C-322.33731232 417.60517029 -321.80743713 418.13221558 -321.26150513 418.67523193 C-319.57482175 420.35075675 -317.88130436 422.01917722 -316.1875 423.6875 C-315.03990612 424.82505851 -313.89276539 425.96307436 -312.74609375 427.1015625 C-309.94011863 429.88553465 -307.12799536 432.6631576 -304.3125 435.4375 C-300.44783667 433.84969641 -298.01190845 431.37816771 -295.08496094 428.43701172 C-294.57719116 427.929534 -294.06942139 427.42205627 -293.54626465 426.89920044 C-291.87501491 425.22656131 -290.21095444 423.54695783 -288.546875 421.8671875 C-287.38717623 420.70375722 -286.22703408 419.54076874 -285.06646729 418.37820435 C-282.01740648 415.321518 -278.97440037 412.25887256 -275.93261719 409.19494629 C-272.82590087 406.06774835 -269.71349455 402.94622493 -266.6015625 399.82421875 C-260.49962583 393.7008512 -254.40407402 387.5711764 -248.3125 381.4375 C-249.09966972 379.99735716 -249.88969243 378.55877352 -250.6809082 377.12084961 C-251.12054398 376.31957138 -251.56017975 375.51829315 -252.01313782 374.69273376 C-257.00179129 366.03419352 -264.79574752 357.98801587 -272.3125 351.4375 C-275.1828006 351.4375 -276.17064522 353.05808506 -278.11517334 354.99133301 Z M-380.3125 384.4375 C-384.23429855 393.72796308 -388.02431842 403.06884354 -391.72607422 412.44897461 C-392.37277832 414.08084323 -393.02456499 415.71070585 -393.68115234 417.33862305 C-394.6408334 419.7197812 -395.58377396 422.10697738 -396.5234375 424.49609375 C-396.81914642 425.22009872 -397.11485535 425.9441037 -397.41952515 426.69004822 C-398.95745995 430.65751204 -400.03337062 433.44321539 -398.3125 437.4375 C-396.441842 439.73160312 -394.59987161 441.78202182 -392.51953125 443.8671875 C-391.93588303 444.46177765 -391.3522348 445.0563678 -390.75090027 445.66897583 C-389.51614204 446.9195705 -388.27603868 448.16490728 -387.03100586 449.40527344 C-385.12939266 451.30810453 -383.25900641 453.23835182 -381.38867188 455.171875 C-380.18408723 456.38459866 -378.9777631 457.5955975 -377.76953125 458.8046875 C-377.21304398 459.38475555 -376.6565567 459.96482361 -376.08320618 460.56246948 C-373.61168672 462.97698829 -372.0886519 464.41195192 -368.56079102 464.52807617 C-363.96167702 462.98397679 -359.41109132 461.3628296 -354.8828125 459.62109375 C-353.89248016 459.24517593 -352.90214783 458.86925812 -351.88180542 458.48194885 C-348.73169291 457.28483896 -345.58458735 456.08003734 -342.4375 454.875 C-340.29706904 454.06003706 -338.15644609 453.24557818 -336.015625 452.43164062 C-330.77901139 450.43942872 -325.54484267 448.44090032 -320.3125 446.4375 C-320.3125 442.73234063 -321.53182781 441.86208595 -324.04560852 439.32002258 C-324.59573105 438.77911484 -325.14585358 438.23820709 -325.71264648 437.6809082 C-326.28650085 437.10500946 -326.86035522 436.52911072 -327.45159912 435.9357605 C-329.35508445 434.02926079 -331.26911289 432.13373417 -333.18359375 430.23828125 C-334.50457422 428.92035697 -335.82496599 427.60184238 -337.14479065 426.28276062 C-339.91369145 423.51846683 -342.68743758 420.75916358 -345.46508789 418.00366211 C-349.03442206 414.46263821 -352.59499564 410.91296811 -356.15243435 407.35999775 C-358.87901764 404.63756098 -361.60842128 401.91796793 -364.33888435 399.19942284 C-365.65313931 397.89088461 -366.96691405 396.58186389 -368.28021049 395.27236366 C-370.11184968 393.44756084 -371.94683388 391.62619578 -373.78295898 389.8059082 C-374.33105728 389.25892776 -374.87915558 388.71194733 -375.44386292 388.14839172 C-377.5306288 385.58762938 -377.5306288 385.58762938 -380.3125 384.4375 Z M-229.3125 403.4375 C-230.73291821 406.27833641 -230.62702272 408.29227278 -230.3125 411.4375 C-228.08043569 414.28530619 -226.76257001 415.28747666 -223.3125 416.4375 C-220.773916 416.54368726 -218.26237876 416.59473332 -215.72338867 416.59863281 C-214.56675972 416.60608017 -214.56675972 416.60608017 -213.38676453 416.61367798 C-210.83465686 416.62828807 -208.28261137 416.63509993 -205.73046875 416.640625 C-203.95551044 416.64637773 -202.18055215 416.65213545 -200.40559387 416.65789795 C-196.68242097 416.66840488 -192.95926963 416.67424945 -189.23608398 416.67773438 C-184.47125272 416.68321621 -179.70670763 416.70723884 -174.94196606 416.73570633 C-171.27447178 416.75435449 -167.60704611 416.75953948 -163.93950844 416.76107025 C-162.18327585 416.76409276 -160.42704436 416.77210774 -158.67085838 416.78525543 C-156.2102842 416.80236045 -153.75040487 416.80042493 -151.28979492 416.79394531 C-150.56802063 416.8031601 -149.84624634 416.81237488 -149.1026001 416.8218689 C-144.45218018 416.78361604 -141.25737963 415.90346943 -137.3125 413.4375 C-135.89208179 410.59666359 -135.99797728 408.58272722 -136.3125 405.4375 C-138.54456431 402.58969381 -139.86242999 401.58752334 -143.3125 400.4375 C-145.851084 400.33131274 -148.36262124 400.28026668 -150.90161133 400.27636719 C-151.6726973 400.27140228 -152.44378326 400.26643738 -153.23823547 400.26132202 C-155.79034314 400.24671193 -158.34238863 400.23990007 -160.89453125 400.234375 C-162.66948956 400.22862227 -164.44444785 400.22286455 -166.21940613 400.21710205 C-169.94257903 400.20659512 -173.66573037 400.20075055 -177.38891602 400.19726562 C-182.15374728 400.19178379 -186.91829237 400.16776116 -191.68303394 400.13929367 C-195.35052822 400.12064551 -199.01795389 400.11546052 -202.68549156 400.11392975 C-204.44172415 400.11090724 -206.19795564 400.10289226 -207.95414162 400.08974457 C-210.4147158 400.07263955 -212.87459513 400.07457507 -215.33520508 400.08105469 C-216.05697937 400.0718399 -216.77875366 400.06262512 -217.5223999 400.0531311 C-222.17281982 400.09138396 -225.36762037 400.97153057 -229.3125 403.4375 Z M-229.3125 435.4375 C-230.73291821 438.27833641 -230.62702272 440.29227278 -230.3125 443.4375 C-228.08043569 446.28530619 -226.76257001 447.28747666 -223.3125 448.4375 C-220.773916 448.54368726 -218.26237876 448.59473332 -215.72338867 448.59863281 C-214.56675972 448.60608017 -214.56675972 448.60608017 -213.38676453 448.61367798 C-210.83465686 448.62828807 -208.28261137 448.63509993 -205.73046875 448.640625 C-203.95551044 448.64637773 -202.18055215 448.65213545 -200.40559387 448.65789795 C-196.68242097 448.66840488 -192.95926963 448.67424945 -189.23608398 448.67773438 C-184.47125272 448.68321621 -179.70670763 448.70723884 -174.94196606 448.73570633 C-171.27447178 448.75435449 -167.60704611 448.75953948 -163.93950844 448.76107025 C-162.18327585 448.76409276 -160.42704436 448.77210774 -158.67085838 448.78525543 C-156.2102842 448.80236045 -153.75040487 448.80042493 -151.28979492 448.79394531 C-150.56802063 448.8031601 -149.84624634 448.81237488 -149.1026001 448.8218689 C-144.45218018 448.78361604 -141.25737963 447.90346943 -137.3125 445.4375 C-135.89208179 442.59666359 -135.99797728 440.58272722 -136.3125 437.4375 C-138.54456431 434.58969381 -139.86242999 433.58752334 -143.3125 432.4375 C-145.851084 432.33131274 -148.36262124 432.28026668 -150.90161133 432.27636719 C-151.6726973 432.27140228 -152.44378326 432.26643738 -153.23823547 432.26132202 C-155.79034314 432.24671193 -158.34238863 432.23990007 -160.89453125 432.234375 C-162.66948956 432.22862227 -164.44444785 432.22286455 -166.21940613 432.21710205 C-169.94257903 432.20659512 -173.66573037 432.20075055 -177.38891602 432.19726562 C-182.15374728 432.19178379 -186.91829237 432.16776116 -191.68303394 432.13929367 C-195.35052822 432.12064551 -199.01795389 432.11546052 -202.68549156 432.11392975 C-204.44172415 432.11090724 -206.19795564 432.10289226 -207.95414162 432.08974457 C-210.4147158 432.07263955 -212.87459513 432.07457507 -215.33520508 432.08105469 C-216.05697937 432.0718399 -216.77875366 432.06262512 -217.5223999 432.0531311 C-222.17281982 432.09138396 -225.36762037 432.97153057 -229.3125 435.4375 Z M-407.3125 453.4375 C-408.49615392 456.30579206 -409.6562597 459.18305988 -410.8125 462.0625 C-411.14636719 462.87074219 -411.48023438 463.67898438 -411.82421875 464.51171875 C-413.58164804 468.92322494 -414.96699886 472.60313339 -414.3125 477.4375 C-412.47768159 479.67621729 -412.47768159 479.67621729 -409.7734375 479.78125 C-405.11356478 479.3184184 -401.24163739 477.71544511 -396.9375 475.9375 C-396.10605469 475.60363281 -395.27460938 475.26976562 -394.41796875 474.92578125 C-392.37891174 474.10547096 -390.34416801 473.27590549 -388.3125 472.4375 C-392.22778959 467.75265046 -396.29209982 463.30052483 -400.625 459 C-401.16189453 458.45923828 -401.69878906 457.91847656 -402.25195312 457.36132812 C-404.41982826 454.66551091 -404.41982826 454.66551091 -407.3125 453.4375 Z M-210.3125 464.4375 C-205.83703174 471.89661376 -199.91659353 477.25618051 -191.3125 479.4375 C-180.80230022 480.72085071 -172.16078337 479.84209965 -163.3125 473.4375 C-160.6710506 470.96704733 -158.34352256 468.43397343 -156.3125 465.4375 C-156.3125 465.1075 -156.3125 464.7775 -156.3125 464.4375 C-174.1325 464.4375 -191.9525 464.4375 -210.3125 464.4375 Z " fill="#0088CC" transform="translate(439.3125,7.5625)"/>
<path d="M0 0 C5.82485779 3.51996782 10.54466582 8.98962934 12.5625 15.5 C13.36764105 23.33608208 13.68710392 31.11922577 8.5625 37.5 C3.75801361 42.54521222 -0.59927055 46.10562995 -7.70703125 46.8359375 C-16.22326573 46.92983204 -22.11345494 46.6177288 -28.40234375 40.62890625 C-34.7841668 33.72505269 -35.91792252 28.29832071 -35.7421875 18.9453125 C-35.04689797 11.08319245 -31.38995981 6.95041296 -25.53515625 1.9453125 C-18.47077988 -2.92213491 -7.84396301 -3.47595223 0 0 Z M-16.8125 17.125 C-18.92456506 20.21186432 -19.04945145 21.8282913 -18.4375 25.5 C-16.9375 28 -16.9375 28 -14.4375 29.5 C-10.7657913 30.11195145 -9.14936432 29.98706506 -6.0625 27.875 C-3.95043494 24.78813568 -3.82554855 23.1717087 -4.4375 19.5 C-5.9375 17 -5.9375 17 -8.4375 15.5 C-12.1092087 14.88804855 -13.72563568 15.01293494 -16.8125 17.125 Z " fill="#0088CC" transform="translate(403.4375,337.5)"/>
</svg>
